<?xml version="1.0" encoding="utf-8"?>
<!-- Generator: Adobe Illustrator 27.5.0, SVG Export Plug-In . SVG Version: 6.00 Build 0)  -->
<svg version="1.1" xmlns="http://www.w3.org/2000/svg" xmlns:xlink="http://www.w3.org/1999/xlink" x="0px" y="0px"
	 viewBox="0 0 2200 2200" style="enable-background:new 0 0 2200 2200;" xml:space="preserve">
<g id="Background">
	<rect style="fill:#FFFFFF;" width="2200" height="2200"/>
</g>
<g id="Objects">
	<g>
		<g>
			<path style="fill:#E03F4F;" d="M1739.64,496.065l-7.844-49.407l-49.806,4.679c-97,9.111-198.543-1.769-293.648-31.468
				c-95.102-29.698-182.7-77.897-253.324-139.386L1100.005,250l-35.013,30.482c-70.629,61.49-158.231,109.689-253.334,139.387
				c-95.106,29.699-196.649,40.58-293.649,31.468l-49.807-4.679l-7.843,49.407c-9.819,61.857-26.292,197.353-26.292,409.812
				c0,252.629,58.77,442.244,179.667,579.682c105.21,119.604,239.042,179.696,357.119,232.714
				c37.182,16.695,72.301,32.464,104.637,49.204l24.514,12.691l24.514-12.691c32.334-16.739,67.45-32.507,104.628-49.201
				c118.077-53.02,251.909-113.113,357.119-232.718c120.897-137.438,179.667-327.053,179.667-579.681
				C1765.932,693.421,1749.459,557.924,1739.64,496.065z M1615.395,1220.4c-25.26,76.209-60.98,139.904-109.201,194.723
				c-89.928,102.232-207.261,154.917-320.73,205.868c-29.649,13.312-58.031,26.057-85.459,39.464
				c-27.43-13.408-55.817-26.153-85.469-39.468c-113.469-50.949-230.801-103.633-320.73-205.864
				c-48.22-54.818-83.941-118.512-109.201-194.722c-29.126-87.873-43.894-193.695-43.894-314.524
				c0-160.879,9.623-275.049,18.273-345.167c8.927,0.284,17.838,0.426,26.766,0.426c185.97-0.005,371.276-61.544,514.253-171.563
				c142.981,110.028,328.258,171.567,514.244,171.563c8.914,0,17.855-0.142,26.768-0.427c8.651,70.118,18.274,184.29,18.274,345.167
				C1659.289,1026.705,1644.521,1132.526,1615.395,1220.4z"/>
			<polygon style="fill:#E03F4F;" points="1378.74,949.899 1378.74,1106.861 1178.481,1106.861 1178.481,1307.12 1021.519,1307.12 
				1021.519,1106.861 821.26,1106.861 821.26,949.899 1021.519,949.899 1021.519,749.64 1178.481,749.64 1178.481,949.899 			"/>
		</g>
		<ellipse style="fill:#D8D8D8;" cx="1100" cy="1915.5" rx="258.375" ry="34.5"/>
	</g>
</g>
</svg>
