<?xml version="1.0" encoding="utf-8"?>
<!-- Generator: Adobe Illustrator 27.5.0, SVG Export Plug-In . SVG Version: 6.00 Build 0)  -->
<svg version="1.1" xmlns="http://www.w3.org/2000/svg" xmlns:xlink="http://www.w3.org/1999/xlink" x="0px" y="0px"
	 viewBox="0 0 500 500" style="enable-background:new 0 0 500 500;" xml:space="preserve">
<g id="BACKGROUND">
	<rect style="fill:#FFFFFF;" width="500" height="500"/>
</g>
<g id="OBJECTS">
	
		<ellipse transform="matrix(0.1983 -0.9802 0.9802 0.1983 147.7415 433.4548)" style="fill:#B5CFC8;" cx="338.824" cy="126.419" rx="37.345" ry="37.345"/>
	<g>
		<defs>
			<path id="SVGID_1_" d="M276.367,201.46c0,65.933-53.456,119.389-119.389,119.389c-58.522,0-107.218-42.118-117.417-97.691
				c-13.977-10.143-30.636-24.231-31.525-34.247c-1.289-14.515,32.602-37.113,43.89-44.218
				c20.193-37.291,59.667-62.622,105.051-62.622C222.91,82.071,276.367,135.528,276.367,201.46z"/>
		</defs>
		<clipPath id="SVGID_00000160186289455925144860000006719599806256861858_">
			<use xlink:href="#SVGID_1_"  style="overflow:visible;"/>
		</clipPath>
		
			<circle style="clip-path:url(#SVGID_00000160186289455925144860000006719599806256861858_);fill:#B5CFC8;" cx="156.978" cy="201.46" r="119.386"/>
		<g style="clip-path:url(#SVGID_00000160186289455925144860000006719599806256861858_);">
			<path style="fill:#DE9D96;" d="M186.174,183.192c-15.452,22.144-44.167,13.263-44.167,13.263l0.038-1.738l0.326-15.023h43.581
				L186.174,183.192z"/>
			<path style="fill:#EFC5B4;" d="M186.984,196.004c-4.437,12.378-18.928,23.252-18.928,23.252
				c-12.579-4.682-26.049-22.801-26.049-22.801s28.715,8.88,44.167-13.263l0.652,10.314L186.984,196.004z"/>
			<g>
				<path style="fill:#3C221D;" d="M168.055,219.876c-0.073,0-0.146-0.013-0.216-0.039c-12.606-4.692-25.775-22.266-26.33-23.012
					c-0.082-0.111-0.125-0.245-0.122-0.383l0.364-16.761c0.008-0.337,0.283-0.606,0.62-0.606h43.581c0.327,0,0.598,0.254,0.618,0.58
					l1.032,16.311c0.005,0.084-0.007,0.169-0.035,0.248c-4.449,12.41-18.542,23.09-19.14,23.538
					C168.318,219.833,168.188,219.876,168.055,219.876z M142.631,196.253c1.387,1.821,13.789,17.8,25.321,22.3
					c1.985-1.551,14.367-11.549,18.405-22.638l-0.987-15.601h-42.393L142.631,196.253z"/>
			</g>
			<g>
				<path style="fill:#EFC5B4;" d="M195.782,152.082c-1.93,5.904-3.632,6.319-3.885,6.35c0.351-8.174,0.145-15.779,0.145-15.779
					s0.025-1.003-0.049-2.697c0.184-0.294,1.066-1.534,2.784-1.664c0.336-0.028,0.709-0.015,1.111,0.061
					C198.624,138.861,197.873,145.691,195.782,152.082z"/>
				<path style="fill:#EFC5B4;" d="M191.98,139.726c0.006,0.076,0.012,0.153,0.012,0.23c0.074,1.694,0.049,2.697,0.049,2.697
					s0.206,7.605-0.145,15.779c-0.162,3.949-0.464,8.031-0.975,11.453c-1.561,10.425-9.391,20.883-17.245,22.644
					c-0.14,0.031-4.577,0.671-4.718,0.691s-4.583,0.661-4.726,0.671c-8.032,0.53-18.498-7.289-22.942-16.848
					c-1.464-3.153-2.911-7.003-4.189-10.76c-2.639-7.722-4.581-15.046-4.581-15.046s-0.307-0.95-0.714-2.591
					c-0.073-0.293-0.149-0.607-0.224-0.946c0.916-0.616,1.428-1.885,1.637-3.044c0.635-3.491-0.062-7.069-0.569-10.586
					c-0.492-3.411-0.79-7.01,0.447-10.223c3.083,3.269,7.463,5.275,11.948,5.478c4.511,0.204,9.079-1.413,12.452-4.418
					c2.63-2.337,4.499-5.414,7.068-7.819c2.692-2.516,6.123-4.226,9.756-4.864l0.025-0.004c0.845,7.146,4.169,13.977,9.28,19.05
					C186.446,134.07,189.825,136.395,191.98,139.726z"/>
				<path style="fill:#EFC5B4;" d="M137.102,166.285c0,0-1.742,0.565-5.55-4.979c-3.812-5.539-6.463-11.879-3.981-13.138
					c0.465-0.237,0.905-0.367,1.314-0.421c0.788-0.109,1.457,0.063,1.952,0.285c0.275-0.06,0.521-0.173,0.746-0.329
					c0.075,0.34,0.151,0.653,0.224,0.946c0.407,1.641,0.714,2.591,0.714,2.591S134.463,158.562,137.102,166.285z"/>
				<g>
					<path style="fill:#3C221D;" d="M140.48,151.596c-0.096,0-0.195-0.023-0.286-0.071c-0.302-0.158-0.42-0.529-0.264-0.832
						c0.063-0.122,1.589-2.982,6.122-3.636c4.483-0.644,7.915,2.033,8.059,2.147c0.268,0.213,0.312,0.602,0.1,0.869
						c-0.212,0.268-0.601,0.313-0.87,0.102c-0.031-0.025-3.172-2.46-7.112-1.892c-3.869,0.558-5.147,2.883-5.2,2.981
						C140.918,151.476,140.703,151.596,140.48,151.596z"/>
				</g>
				<path style="fill:#3C221D;" d="M149.282,149.113c0.184,1.274-0.7,2.456-1.974,2.64c-1.274,0.184-2.456-0.7-2.64-1.974
					c-0.184-1.274,0.7-2.456,1.974-2.64C147.916,146.955,149.098,147.839,149.282,149.113z"/>
				<g>
					<path style="fill:#3C221D;" d="M138.921,146.296c-0.35,0-0.697-0.146-0.942-0.432c-0.444-0.519-0.387-1.298,0.13-1.744
						c0.268-0.231,6.669-5.623,15.559-2.171c0.638,0.248,0.954,0.966,0.707,1.604c-0.248,0.638-0.964,0.954-1.604,0.707
						c-7.466-2.899-12.821,1.55-13.045,1.74C139.492,146.199,139.206,146.296,138.921,146.296z"/>
				</g>
				<path style="fill:#EFC5B4;" d="M191.897,158.432c-0.02,0.003-0.031-0.001-0.031-0.001"/>
				<g>
					<path style="fill:#3C221D;" d="M173.18,147.503c-0.124,0-0.248-0.037-0.357-0.113c-0.279-0.197-0.346-0.583-0.15-0.863
						c0.106-0.15,2.641-3.69,7.123-4.337c4.533-0.653,6.806,1.659,6.9,1.757c0.237,0.247,0.228,0.64-0.019,0.876
						c-0.247,0.236-0.638,0.229-0.874-0.017c-0.088-0.089-1.973-1.948-5.83-1.39c-3.94,0.568-6.264,3.791-6.287,3.824
						C173.566,147.412,173.375,147.503,173.18,147.503z"/>
				</g>
				<path style="fill:#3C221D;" d="M177.28,145.075c0.184,1.274,1.366,2.158,2.64,1.974c1.274-0.184,2.158-1.366,1.974-2.64
					c-0.184-1.274-1.366-2.158-2.64-1.974C177.98,142.618,177.096,143.8,177.28,145.075z"/>
				<g>
					<path style="fill:#3C221D;" d="M171.806,141.663c-0.371,0-0.738-0.166-0.982-0.483c-0.418-0.542-0.318-1.32,0.225-1.738
						c7.551-5.825,15.215-2.461,15.538-2.314c0.624,0.282,0.9,1.016,0.618,1.64c-0.282,0.623-1.016,0.898-1.637,0.619
						c-0.276-0.122-6.667-2.871-13.005,2.018C172.336,141.579,172.07,141.663,171.806,141.663z"/>
				</g>
				<path style="fill:#E9A497;" d="M170.808,165.131c0.384,2.665-1.636,3.945-4.3,4.33c-2.665,0.384-4.964-0.273-5.349-2.938
					c-0.384-2.664-0.483-18.632,2.182-19.016C166.005,147.122,170.423,162.467,170.808,165.131z"/>
				<g>
					<path style="fill:#3C221D;" d="M163.322,179.361c-0.178,0-0.355-0.077-0.478-0.224c-0.218-0.264-0.182-0.654,0.082-0.872
						c4.086-3.385,9.462-5.086,14.751-4.659c0.341,0.027,0.596,0.326,0.568,0.667c-0.027,0.341-0.332,0.595-0.667,0.568
						c-4.97-0.397-10.022,1.198-13.862,4.379C163.601,179.314,163.461,179.361,163.322,179.361z"/>
				</g>
				<path style="fill:#523029;" d="M194.776,138.293c-1.717,0.129-2.6,1.369-2.784,1.664c-0.001-0.077-0.007-0.154-0.012-0.23
					c-2.155-3.331-5.534-5.656-8.354-8.454c-5.11-5.074-8.434-11.904-9.28-19.05l-0.025,0.004c-3.632,0.637-7.064,2.348-9.756,4.864
					c-2.569,2.405-4.438,5.482-7.068,7.819c-3.373,3.006-7.941,4.623-12.452,4.418c-4.485-0.203-8.865-2.209-11.948-5.478
					c-1.237,3.212-0.939,6.811-0.447,10.223c0.507,3.517,1.204,7.095,0.569,10.586c-0.209,1.158-0.721,2.427-1.637,3.044
					c-0.225,0.156-0.471,0.269-0.746,0.329c-0.496-0.222-1.164-0.394-1.952-0.285c-1.562-6.08-2.374-12.35-2.408-18.625
					c-0.019-3.134,0.259-6.528,2.203-8.941c-0.83-0.936-1.536-1.968-1.996-3.122c-0.71-1.778-0.763-3.898,0.227-5.534
					c0.911-1.507,2.542-2.412,4.158-3.103c3.299-1.413,6.827-2.206,10.191-3.453c4.87-1.805,9.393-4.559,14.419-5.892
					c8.108-2.143,17.189-0.182,23.718,5.084c2.492-0.293,5.041,0.911,6.812,2.726c1.905,1.961,3.044,4.532,3.951,7.105
					C192.905,121.785,193.894,130.07,194.776,138.293z"/>
				<g>
					<path style="fill:#3C221D;" d="M191.897,159.052c-0.155,0-0.305-0.058-0.42-0.164c-0.134-0.124-0.207-0.3-0.199-0.482
						c0.346-8.059,0.147-15.659,0.145-15.735c0-0.042,0.024-1.038-0.049-2.687c-0.005-0.126,0.027-0.25,0.094-0.356
						c0.187-0.299,1.225-1.8,3.262-1.953c0.413-0.034,0.842-0.011,1.272,0.07c0.655,0.121,1.202,0.523,1.581,1.16
						c1.504,2.533,0.36,8.568-1.212,13.37c-1.915,5.857-3.713,6.688-4.397,6.773C191.948,159.051,191.922,159.052,191.897,159.052z
						 M192.621,140.136c0.064,1.57,0.042,2.493,0.041,2.533c0.002,0.042,0.183,6.949-0.098,14.59c0.622-0.673,1.576-2.15,2.629-5.37
						c0,0,0,0,0,0c1.811-5.535,2.356-10.614,1.324-12.352c-0.199-0.334-0.434-0.517-0.742-0.574
						c-0.322-0.061-0.641-0.078-0.948-0.053C193.601,139.003,192.889,139.775,192.621,140.136z"/>
				</g>
				<g>
					<path style="fill:#3C221D;" d="M163.472,194.536c-8.068,0-18.305-7.685-22.743-17.231c-1.319-2.839-2.736-6.479-4.214-10.821
						c-2.615-7.654-4.574-15.013-4.593-15.086c-0.003-0.008-0.309-0.958-0.716-2.601c-0.074-0.298-0.152-0.617-0.228-0.962
						c-0.055-0.248,0.048-0.505,0.259-0.647c0.639-0.43,1.153-1.417,1.373-2.639c0.54-2.971,0.071-6.093-0.383-9.113
						c-0.064-0.426-0.128-0.851-0.189-1.275c-0.506-3.507-0.798-7.21,0.482-10.534c0.077-0.199,0.25-0.344,0.459-0.385
						c0.21-0.04,0.424,0.028,0.57,0.183c2.981,3.162,7.182,5.088,11.525,5.284c4.366,0.196,8.75-1.355,12.012-4.262
						c1.338-1.189,2.508-2.616,3.639-3.997c1.062-1.296,2.16-2.635,3.417-3.812c2.765-2.584,6.342-4.367,10.072-5.022
						c0.168-0.029,0.353,0.01,0.49,0.111c0.137,0.102,0.238,0.253,0.258,0.422c0.834,7.049,4.066,13.685,9.101,18.683
						c0.88,0.873,1.837,1.719,2.763,2.537c2.043,1.805,4.156,3.672,5.675,6.02c0.056,0.086,0.089,0.185,0.097,0.288
						c0.007,0.09,0.013,0.18,0.014,0.272c0.074,1.676,0.05,2.678,0.049,2.72c0.002,0.044,0.202,7.687-0.145,15.79
						c-0.186,4.523-0.516,8.399-0.981,11.518c-1.611,10.759-9.727,21.364-17.722,23.157c-0.051,0.011-0.15,0.033-4.572,0.672
						l-0.306,0.044c-4.503,0.648-4.611,0.656-4.657,0.66C164.012,194.528,163.743,194.536,163.472,194.536z M132.274,147.946
						c0.045,0.192,0.09,0.376,0.134,0.552c0.396,1.598,0.699,2.542,0.702,2.551c0.029,0.104,1.977,7.423,4.578,15.035
						c1.464,4.301,2.865,7.9,4.165,10.699c4.392,9.448,14.616,16.994,22.339,16.49c0.037-0.004,0.524-0.068,4.565-0.65l0.306-0.044
						c3.722-0.538,4.413-0.643,4.494-0.658c7.53-1.689,15.209-11.824,16.752-22.128c0.459-3.075,0.785-6.907,0.969-11.387
						c0.346-8.061,0.147-15.661,0.145-15.737c0-0.042,0.024-1.038-0.049-2.687c0-0.019-0.001-0.037-0.001-0.054
						c-1.422-2.145-3.427-3.916-5.367-5.631c-0.939-0.83-1.91-1.688-2.815-2.586c-5.076-5.039-8.389-11.677-9.374-18.757
						c-3.277,0.694-6.389,2.309-8.827,4.587c-1.197,1.121-2.269,2.428-3.305,3.693c-1.162,1.418-2.364,2.884-3.774,4.137
						c-3.501,3.119-8.199,4.791-12.892,4.574c-4.321-0.196-8.512-1.987-11.65-4.951c-0.81,2.83-0.537,5.979-0.103,8.988
						c0.061,0.422,0.124,0.845,0.188,1.268c0.469,3.119,0.954,6.345,0.377,9.518C133.708,145.441,133.324,147.001,132.274,147.946z"
						/>
				</g>
				<g>
					<path style="fill:#3C221D;" d="M136.923,166.927c-0.834,0-2.724-0.673-5.882-5.271c-2.865-4.162-5.667-9.627-4.941-12.482
						c0.182-0.718,0.594-1.257,1.19-1.56c0.498-0.254,1.008-0.417,1.514-0.484c0.697-0.094,1.408-0.011,2.073,0.245
						c0.122-0.044,0.239-0.104,0.353-0.184c0.17-0.118,0.387-0.143,0.58-0.068c0.192,0.075,0.334,0.242,0.379,0.444
						c0.074,0.333,0.148,0.641,0.22,0.929c0.396,1.598,0.699,2.542,0.702,2.551c0.029,0.104,1.977,7.423,4.578,15.035
						c0.053,0.157,0.042,0.329-0.032,0.478c-0.074,0.149-0.205,0.261-0.363,0.312C137.209,166.901,137.086,166.927,136.923,166.927z
						 M129.372,148.332c-0.134,0-0.268,0.009-0.403,0.028c-0.37,0.049-0.744,0.169-1.118,0.36c-0.28,0.142-0.455,0.383-0.55,0.76
						c-0.498,1.959,1.459,6.678,4.761,11.474c1.954,2.845,3.299,3.979,4.08,4.43c-2.427-7.244-4.202-13.916-4.221-13.986
						c-0.003-0.008-0.309-0.958-0.716-2.601c-0.017-0.068-0.034-0.138-0.052-0.208c-0.061,0.018-0.122,0.034-0.184,0.048
						c-0.129,0.027-0.265,0.014-0.386-0.04C130.191,148.42,129.785,148.332,129.372,148.332z"/>
				</g>
				<g>
					<path style="fill:#3C221D;" d="M130.837,148.65c-0.087,0-0.173-0.018-0.254-0.054c-0.52-0.233-1.062-0.312-1.614-0.237
						c-0.308,0.044-0.606-0.155-0.685-0.46c-1.576-6.135-2.393-12.452-2.428-18.776c-0.018-2.99,0.217-6.36,2.027-8.92
						c-0.795-0.96-1.378-1.918-1.776-2.918c-0.848-2.125-0.747-4.4,0.272-6.084c1.049-1.735,2.926-2.703,4.444-3.352
						c1.936-0.83,3.967-1.454,5.932-2.058c1.417-0.436,2.883-0.886,4.288-1.407c1.933-0.717,3.853-1.604,5.71-2.462
						c2.805-1.296,5.706-2.636,8.766-3.448c8.196-2.165,17.392-0.234,24.067,5.042c2.45-0.195,5.071,0.89,7.065,2.935
						c2.085,2.146,3.238,4.91,4.092,7.332c2.695,7.649,3.7,15.595,4.649,24.442c0.018,0.167-0.032,0.334-0.14,0.463
						c-0.107,0.129-0.262,0.209-0.43,0.221c-1.443,0.109-2.173,1.164-2.305,1.375c-0.146,0.233-0.428,0.342-0.693,0.268
						c-0.265-0.074-0.449-0.314-0.452-0.589c0-0.012,0-0.023-0.001-0.035c-1.422-2.145-3.427-3.916-5.367-5.631
						c-0.939-0.83-1.91-1.688-2.815-2.586c-5.076-5.039-8.389-11.677-9.374-18.757c-3.277,0.694-6.389,2.309-8.827,4.587
						c-1.197,1.121-2.269,2.428-3.305,3.693c-1.162,1.418-2.364,2.884-3.774,4.137c-3.501,3.119-8.199,4.791-12.892,4.574
						c-4.321-0.196-8.512-1.987-11.65-4.951c-0.81,2.83-0.537,5.979-0.103,8.988c0.061,0.422,0.124,0.845,0.188,1.268
						c0.469,3.119,0.954,6.345,0.377,9.518c-0.133,0.741-0.586,2.562-1.9,3.447c-0.292,0.202-0.617,0.345-0.96,0.42
						C130.926,148.645,130.881,148.65,130.837,148.65z M129.363,147.093c0.514,0,1.027,0.095,1.513,0.283
						c0.122-0.044,0.239-0.104,0.353-0.184c0.646-0.435,1.16-1.422,1.38-2.644c0.541-2.971,0.071-6.093-0.383-9.113
						c-0.064-0.426-0.128-0.851-0.189-1.275c-0.506-3.507-0.798-7.21,0.482-10.534c0.077-0.199,0.25-0.344,0.459-0.385
						c0.21-0.04,0.424,0.028,0.57,0.183c2.981,3.162,7.182,5.088,11.525,5.284c4.366,0.196,8.75-1.355,12.012-4.262
						c1.338-1.189,2.508-2.616,3.639-3.997c1.062-1.296,2.16-2.635,3.417-3.812c2.765-2.584,6.342-4.367,10.072-5.022
						c0.167-0.029,0.353,0.01,0.49,0.111c0.137,0.102,0.238,0.253,0.258,0.422c0.834,7.049,4.066,13.685,9.101,18.683
						c0.88,0.873,1.837,1.719,2.763,2.537c1.881,1.662,3.82,3.376,5.301,5.469c0.437-0.414,1.088-0.866,1.97-1.068
						c-0.923-8.533-1.931-16.22-4.523-23.574c-0.809-2.295-1.894-4.907-3.811-6.88c-1.771-1.816-4.181-2.788-6.295-2.543
						c-0.168,0.018-0.332-0.029-0.461-0.133c-6.389-5.153-15.268-7.056-23.171-4.967c-2.955,0.784-5.806,2.101-8.563,3.375
						c-1.878,0.868-3.82,1.765-5.799,2.498c-1.437,0.533-2.92,0.989-4.354,1.43c-1.934,0.594-3.933,1.209-5.808,2.012
						c-1.348,0.577-3.006,1.422-3.871,2.854c-0.819,1.354-0.887,3.217-0.182,4.984c0.398,0.999,1.014,1.96,1.884,2.941
						c0.201,0.226,0.209,0.564,0.019,0.8c-1.853,2.3-2.084,5.612-2.066,8.548c0.033,6.052,0.794,12.096,2.263,17.976
						C129.36,147.093,129.362,147.093,129.363,147.093z"/>
				</g>
				<g>
					<path style="fill:#3C221D;" d="M133.098,124.469c-0.149,0-0.299-0.054-0.418-0.162c-1.822-1.664-4.353-3.616-4.379-3.636
						c-0.271-0.209-0.322-0.598-0.113-0.869c0.208-0.272,0.598-0.322,0.869-0.113c0.026,0.02,2.598,2.003,4.459,3.703
						c0.253,0.231,0.27,0.623,0.04,0.875C133.433,124.401,133.266,124.469,133.098,124.469z"/>
				</g>
				<g>
					<path style="fill:#3C221D;" d="M147.255,123.777c-1.044,0-2.09-0.081-3.129-0.248c-7.229-1.159-13.513-6.356-16.008-13.24
						c-0.117-0.322,0.05-0.677,0.371-0.794c0.322-0.117,0.677,0.05,0.794,0.371c2.308,6.368,8.352,11.366,15.039,12.439
						c6.688,1.072,13.991-1.785,18.175-7.112c1.115-1.42,2.049-3.028,2.953-4.583c0.7-1.205,1.424-2.451,2.237-3.623
						c1.634-2.356,4.357-5.291,8.048-5.888c0.337-0.054,0.656,0.175,0.711,0.513c0.055,0.338-0.175,0.656-0.513,0.711
						c-3.26,0.527-5.729,3.212-7.227,5.37c-0.785,1.132-1.496,2.356-2.183,3.539c-0.924,1.592-1.881,3.239-3.049,4.727
						C159.599,120.89,153.475,123.777,147.255,123.777z"/>
				</g>
				<g>
					<path style="fill:#3C221D;" d="M150.948,109.24c-3.307,0-6.626-1.397-8.844-3.861c-0.229-0.254-0.208-0.646,0.046-0.875
						c0.254-0.229,0.646-0.208,0.875,0.046c2.567,2.852,6.784,4.104,10.494,3.121c2.831-0.752,5.148-2.586,7.603-4.528
						c2.421-1.916,4.925-3.896,7.965-4.733c0.33-0.091,0.671,0.103,0.762,0.433c0.091,0.33-0.103,0.671-0.433,0.762
						c-2.797,0.769-5.093,2.586-7.525,4.509c-2.445,1.935-4.974,3.936-8.053,4.754C152.895,109.119,151.922,109.24,150.948,109.24z"
						/>
				</g>
				<g>
					<path style="fill:#3C221D;" d="M178.372,124.476c-0.275,0-0.527-0.185-0.599-0.463c-0.086-0.331,0.112-0.67,0.443-0.757
						c4.874-1.273,8.913-4.17,11.681-8.378c0.188-0.286,0.573-0.365,0.858-0.177c0.286,0.188,0.365,0.572,0.177,0.858
						c-2.939,4.468-7.228,7.544-12.403,8.896C178.476,124.469,178.423,124.476,178.372,124.476z"/>
				</g>
				<g>
					<path style="fill:#3C221D;" d="M182.914,130.725c-0.247,0-0.481-0.149-0.577-0.393c-0.125-0.318,0.031-0.678,0.35-0.804
						c3.775-1.486,6.952-4.432,8.717-8.084c0.148-0.308,0.52-0.438,0.828-0.288c0.308,0.149,0.437,0.52,0.288,0.828
						c-1.899,3.93-5.318,7.1-9.379,8.698C183.066,130.711,182.989,130.725,182.914,130.725z"/>
				</g>
				<g>
					<path style="fill:#3C221D;" d="M186.624,134.381c-0.233,0-0.456-0.132-0.561-0.357c-0.146-0.31-0.012-0.679,0.298-0.824
						c2.649-1.244,4.907-3.188,6.53-5.623c0.189-0.285,0.574-0.363,0.859-0.172c0.285,0.19,0.362,0.575,0.172,0.859
						c-1.748,2.623-4.181,4.718-7.035,6.058C186.802,134.362,186.712,134.381,186.624,134.381z"/>
				</g>
				<g>
					<path style="fill:#3C221D;" d="M165.274,170.48c-1.014,0-1.709-0.2-2.388-0.395c-0.449-0.129-0.872-0.251-1.401-0.32
						c-0.771-0.102-1.091,0.043-1.535,0.242c-0.411,0.185-0.922,0.415-1.774,0.424c-0.009,0-0.017,0-0.026,0
						c-2.04,0-2.678-2.555-2.704-2.664c-0.08-0.333,0.125-0.668,0.458-0.747c0.333-0.08,0.667,0.124,0.747,0.458
						c0.004,0.015,0.452,1.715,1.502,1.715c0.003,0,0.007,0,0.01,0c0.593-0.006,0.911-0.15,1.279-0.315
						c0.509-0.229,1.084-0.491,2.205-0.341c0.62,0.081,1.109,0.222,1.581,0.357c0.895,0.257,1.668,0.479,3.234,0.254
						c1.345-0.194,2.101-0.642,2.977-1.161c0.447-0.265,0.909-0.538,1.469-0.787c1.033-0.458,1.659-0.372,2.212-0.296
						c0.4,0.054,0.746,0.102,1.315-0.059c1.017-0.288,0.966-2.056,0.965-2.073c-0.015-0.341,0.248-0.632,0.59-0.648
						c0.344-0.017,0.631,0.245,0.648,0.587c0.006,0.113,0.117,2.766-1.866,3.327c-0.82,0.232-1.375,0.156-1.822,0.095
						c-0.482-0.066-0.83-0.114-1.541,0.201c-0.493,0.219-0.904,0.462-1.34,0.72c-0.906,0.537-1.843,1.092-3.432,1.321
						C166.123,170.449,165.674,170.48,165.274,170.48z"/>
				</g>
			</g>
			<g>
				<path style="fill:#3C221D;" d="M50.634,185.978c-0.225,0-0.442-0.123-0.552-0.337c-0.156-0.305-0.036-0.678,0.268-0.835
					c4.297-2.206,13.386-1.529,13.771-1.5c0.341,0.027,0.596,0.325,0.57,0.666c-0.027,0.342-0.317,0.601-0.666,0.57
					c-0.091-0.006-9.123-0.679-13.108,1.367C50.826,185.956,50.729,185.978,50.634,185.978z"/>
			</g>
			<g>
				<path style="fill:#EFC5B4;" d="M148.218,112.564c-0.902,1.451-3.821-2.78-4.035-3.087c0.087,0.254,1.122,3.422-0.116,4.908
					c-1.283,1.555-3.393-1.283-3.393-1.283s1.411,3.075,0.607,4.139c-0.803,1.058-4.33-0.225-7.682-5.613l-3.653-1.098l-2.538,7.584
					c0,0,0.538,22.897-15.261,24.608l-26.359,17.85c-1.393-3.763-5.584-13.168-13.746-16.937c0.503-0.289,26.371-15.18,30.03-18.792
					c3.7-3.653,9-18.151,12.11-20.677c3.104-2.526,12.521-11.26,14.752-11.526c2.225-0.266,3.919,0.855,3.919,0.855
					s10.411,1.983,12.717,3.965C147.871,99.442,149.148,111.067,148.218,112.564z"/>
				<g>
					<path style="fill:#3C221D;" d="M85.788,161.192c-0.063,0-0.127-0.01-0.189-0.03c-0.181-0.058-0.326-0.196-0.392-0.375
						c-1.395-3.768-5.496-12.928-13.425-16.59c-0.21-0.097-0.349-0.303-0.359-0.535c-0.01-0.232,0.11-0.449,0.311-0.565
						c7.298-4.193,26.896-15.726,29.903-18.696c1.784-1.761,4.02-6.28,6.184-10.65c2.221-4.486,4.318-8.724,5.972-10.067
						c0.749-0.609,1.879-1.593,3.188-2.731c5.474-4.763,10.147-8.723,11.882-8.93c2.108-0.253,3.777,0.622,4.22,0.884
						c1.201,0.233,10.595,2.107,12.893,4.083c2.499,2.153,3.841,14.178,2.77,15.902c-0.231,0.372-0.586,0.583-1,0.594
						c-0.01,0-0.02,0.001-0.03,0.001c-0.732,0-1.606-0.695-2.437-1.608c0.055,1.019-0.085,2.126-0.733,2.904
						c-0.383,0.463-0.876,0.715-1.436,0.688c-0.378-0.009-0.751-0.139-1.096-0.329c0.19,0.908,0.222,1.868-0.236,2.473
						c-0.308,0.406-0.827,0.616-1.449,0.584c-1.577-0.073-4.376-1.705-7.129-6.044l-2.856-0.858l-2.314,6.916
						c0.009,1.76-0.217,23.294-15.66,25.108l-26.233,17.765C86.031,161.155,85.91,161.192,85.788,161.192z M73.348,143.596
						c7.196,3.883,11.138,11.954,12.74,16.024l25.712-17.412c0.083-0.057,0.18-0.092,0.281-0.103
						c15.046-1.63,14.713-23.754,14.708-23.977c-0.002-0.072,0.009-0.143,0.032-0.211l2.538-7.584
						c0.106-0.318,0.446-0.492,0.766-0.397l3.653,1.098c0.144,0.043,0.268,0.138,0.348,0.266c2.721,4.373,5.284,5.614,6.259,5.66
						c0.235,0.009,0.363-0.041,0.403-0.094c0.378-0.5-0.15-2.357-0.677-3.506c-0.132-0.288-0.025-0.629,0.247-0.791
						c0.271-0.162,0.623-0.092,0.813,0.162c0.36,0.482,1.316,1.484,1.969,1.499c0.108,0.005,0.269-0.022,0.449-0.24
						c0.861-1.034,0.297-3.464,0.007-4.313c-0.1-0.292,0.031-0.613,0.306-0.753c0.274-0.139,0.612-0.055,0.788,0.198
						c1.515,2.175,2.673,3.145,3.021,3.124l-0.021-0.009c0.824-1.326-0.484-12.549-2.526-14.308
						c-1.789-1.537-9.578-3.283-12.429-3.826c-0.081-0.016-0.158-0.047-0.226-0.092c-0.014-0.009-1.542-0.992-3.503-0.757
						c-1.497,0.178-7.819,5.679-11.215,8.634c-1.317,1.146-2.454,2.135-3.219,2.758c-1.444,1.173-3.579,5.485-5.643,9.655
						c-2.208,4.462-4.492,9.075-6.424,10.983C99.189,128.56,78.2,140.788,73.348,143.596z"/>
				</g>
				<g>
					<path style="fill:#3C221D;" d="M115.17,135.549c-0.108,0-0.217-0.028-0.317-0.088c-0.294-0.175-0.39-0.556-0.215-0.849
						c0.038-0.064,3.81-6.488,5.545-16.899c0.125-0.749,3.284-5.363,5.156-8.046c0.132-0.189,0.356-0.29,0.585-0.26l4.097,0.508
						c0.34,0.042,0.581,0.352,0.539,0.691c-0.042,0.34-0.357,0.58-0.691,0.539l-3.726-0.462c-2.238,3.219-4.576,6.743-4.744,7.269
						c-1.769,10.623-5.536,17.027-5.696,17.294C115.587,135.441,115.381,135.549,115.17,135.549z"/>
				</g>
				<path style="fill:#DE9D96;" d="M139.819,112.548c0,0,0.005,0.005,0.005,0.016"/>
				<g>
					<path style="fill:#3C221D;" d="M140.673,113.722c-0.293,0-0.553-0.208-0.609-0.506c-0.618-3.317-1.783-6.326-2.494-6.439
						c-0.083-0.013-0.162-0.043-0.233-0.088l-10.263-6.468c-0.29-0.182-0.376-0.565-0.194-0.855c0.182-0.29,0.565-0.376,0.855-0.194
						l10.174,6.412c1.951,0.55,3.072,5.782,3.373,7.404c0.063,0.336-0.159,0.66-0.496,0.723
						C140.749,113.718,140.711,113.722,140.673,113.722z"/>
				</g>
				<g>
					<path style="fill:#3C221D;" d="M144.183,110.097c-0.012,0-0.025,0-0.037-0.001c-0.342-0.02-0.602-0.314-0.582-0.656
						c0.183-3.068-0.074-6.762-0.809-7.382c-1.403-1.183-10.194-8.006-10.282-8.075c-0.27-0.21-0.319-0.599-0.11-0.87
						c0.21-0.27,0.599-0.319,0.87-0.109c0.362,0.281,8.899,6.907,10.321,8.106c1.587,1.338,1.317,7.235,1.247,8.404
						C144.782,109.844,144.509,110.097,144.183,110.097z"/>
				</g>
			</g>
			<g>
				<path style="fill:#A0C7C8;" d="M93.663,321.924l1.363-57.751c0,0-5.1-15.854-12.688-21.97
					c-7.588-6.116-62.846-40.653-65.453-49.767c-2.602-9.114,0.907-8.891,7.251-19.08c6.338-10.195,64.999-45.333,64.999-45.333
					c0.793,0.234,1.553,0.516,2.276,0.858c0,0,0,0,0.005,0c7.669,3.541,15.132,15.885,16.441,19.42
					c0.342,0.934,0.505,1.499,0.505,1.499l-44.29,34.124c7.772,2.488,38.877,2.417,53.45,6.04
					c8.022,1.993,24.522,4.752,24.522,4.752l-0.038,1.738c0,0,13.47,18.119,26.049,22.801c0,0,14.491-10.874,18.928-23.252
					l-0.157-2.498c0,0,18.494,5.556,33.213,10.879c14.724,5.317,15.061,5.888,22.198,31.48c7.132,25.592,16.984,86.06,16.984,86.06
					H93.663z"/>
				<g>
					<path style="fill:#3C221D;" d="M259.22,322.544H93.663c-0.167,0-0.327-0.067-0.443-0.187c-0.117-0.119-0.18-0.28-0.176-0.447
						l1.361-57.645c-0.445-1.338-5.406-15.898-12.454-21.579c-2.024-1.631-7.535-5.347-14.513-10.051
						c-19.584-13.202-49.18-33.154-51.147-40.029c-1.963-6.877-0.474-8.832,2.788-13.115c1.24-1.628,2.783-3.653,4.533-6.463
						c6.344-10.204,62.806-44.099,65.207-45.537c0.148-0.089,0.327-0.111,0.493-0.063c0.827,0.243,1.608,0.537,2.322,0.872
						c0.015,0.005,0.029,0.012,0.044,0.018c7.965,3.678,15.468,16.271,16.763,19.768c0.346,0.946,0.512,1.519,0.519,1.542
						c0.071,0.245-0.016,0.507-0.217,0.663l-43.298,33.36c4.081,0.935,12.106,1.497,20.554,2.088
						c11.158,0.782,23.806,1.667,31.675,3.623c7.907,1.965,24.31,4.715,24.475,4.743c0.303,0.051,0.524,0.317,0.517,0.625
						l-0.033,1.522c1.387,1.821,13.789,17.8,25.321,22.3c1.985-1.551,14.367-11.549,18.405-22.638l-0.15-2.37
						c-0.013-0.202,0.074-0.398,0.233-0.524c0.159-0.126,0.369-0.168,0.563-0.108c0.185,0.055,18.679,5.622,33.245,10.889
						c14.938,5.394,15.36,5.991,22.584,31.896c7.059,25.332,16.9,85.521,16.999,86.126c0.029,0.18-0.022,0.362-0.139,0.501
						C259.575,322.464,259.402,322.544,259.22,322.544z M94.297,321.305h164.193c-1.139-6.91-10.229-61.508-16.851-85.273
						c-7.123-25.542-7.327-25.833-21.811-31.064c-12.751-4.611-28.523-9.453-32.327-10.61l0.101,1.607
						c0.005,0.084-0.007,0.169-0.035,0.248c-4.449,12.41-18.542,23.09-19.14,23.538c-0.169,0.127-0.39,0.159-0.588,0.085
						c-12.606-4.692-25.775-22.266-26.33-23.012c-0.082-0.111-0.125-0.245-0.122-0.383l0.026-1.202
						c-2.892-0.491-16.895-2.897-24.041-4.673c-7.765-1.93-20.355-2.812-31.463-3.59c-9.847-0.69-18.352-1.285-22.027-2.461
						c-0.219-0.07-0.382-0.257-0.421-0.483c-0.04-0.227,0.05-0.457,0.232-0.598l43.948-33.861c-0.081-0.251-0.203-0.612-0.367-1.058
						c-1.206-3.259-8.571-15.554-16.078-19.052c-0.018-0.006-0.035-0.014-0.051-0.021c-0.594-0.281-1.241-0.531-1.927-0.745
						c-4.063,2.445-58.569,35.358-64.556,44.987c-1.78,2.86-3.343,4.911-4.599,6.56c-3.184,4.179-4.375,5.743-2.582,12.023
						c1.843,6.44,32.394,27.036,50.648,39.341c7.002,4.72,12.533,8.448,14.598,10.113c7.644,6.161,12.678,21.608,12.889,22.262
						c0.021,0.066,0.031,0.136,0.029,0.205L94.297,321.305z"/>
				</g>
				<g>
					<path style="fill:#3C221D;" d="M98.369,258.467c-0.265,0-0.511-0.172-0.593-0.439c-4.124-13.54-9.188-26.938-15.05-39.82
						c-0.142-0.312-0.004-0.679,0.307-0.821c0.31-0.143,0.679-0.004,0.821,0.308c5.885,12.931,10.968,26.38,15.108,39.972
						c0.1,0.327-0.085,0.674-0.412,0.773C98.49,258.459,98.429,258.467,98.369,258.467z"/>
				</g>
				<g>
					<path style="fill:#3C221D;" d="M89.349,245.683c-0.212,0-0.419-0.109-0.535-0.305c-4.121-6.999-8.776-13.766-13.835-20.115
						c-0.213-0.267-0.169-0.657,0.099-0.871c0.267-0.212,0.657-0.169,0.871,0.099c5.095,6.393,9.783,13.209,13.934,20.258
						c0.174,0.295,0.075,0.675-0.22,0.848C89.565,245.655,89.456,245.683,89.349,245.683z"/>
				</g>
				<g>
					<path style="fill:#3C221D;" d="M234.988,322.544c-0.334,0-0.61-0.266-0.619-0.602c-0.782-27.81-13.667-80.195-13.797-80.721
						c-0.082-0.332,0.12-0.668,0.453-0.75c0.331-0.081,0.668,0.12,0.751,0.453c0.13,0.527,13.048,53.042,13.833,80.984
						c0.01,0.343-0.26,0.628-0.602,0.637C235,322.544,234.994,322.544,234.988,322.544z"/>
				</g>
			</g>
			<path style="fill:#E3D4D4;" d="M159.495,112.296c-1.049,0-1.05,1.629,0,1.629C160.543,113.926,160.545,112.296,159.495,112.296z"
				/>
			<path style="fill:#E3D4D4;" d="M157.985,100.519c-1.048,0-1.05,1.629,0,1.629C159.033,102.149,159.035,100.519,157.985,100.519z"
				/>
			<path style="fill:#E3D4D4;" d="M164.628,104.445c-1.048,0-1.05,1.629,0,1.629C165.677,106.074,165.678,104.445,164.628,104.445z"
				/>
			<path style="fill:#E3D4D4;" d="M152.247,114.863c-1.048,0-1.05,1.629,0,1.629C153.296,116.492,153.298,114.863,152.247,114.863z"
				/>
			<path style="fill:#E3D4D4;" d="M177.764,107.465c-1.048,0-1.05,1.629,0,1.629C178.813,109.094,178.814,107.465,177.764,107.465z"
				/>
			<path style="fill:#E3D4D4;" d="M183.502,109.126c-1.048,0-1.05,1.629,0,1.629C184.55,110.755,184.552,109.126,183.502,109.126z"
				/>
			<path style="fill:#E3D4D4;" d="M180.935,114.259c-1.049,0-1.05,1.629,0,1.629C181.983,115.888,181.985,114.259,180.935,114.259z"
				/>
			<path style="fill:#E3D4D4;" d="M185.766,112.9c-1.048,0-1.05,1.629,0,1.629C186.815,114.53,186.817,112.9,185.766,112.9z"/>
			<path style="fill:#E3D4D4;" d="M151.643,104.716c-0.699,0-0.7,1.086,0,1.086C152.342,105.803,152.344,104.716,151.643,104.716z"
				/>
			<path style="fill:#E3D4D4;" d="M156.022,104.113c-0.699,0-0.7,1.086,0,1.086C156.721,105.199,156.722,104.113,156.022,104.113z"
				/>
			<path style="fill:#E3D4D4;" d="M155.871,112.417c-0.699,0-0.7,1.086,0,1.086C156.57,113.503,156.571,112.417,155.871,112.417z"/>
			<path style="fill:#E3D4D4;" d="M148.473,118.758c-0.699,0-0.7,1.086,0,1.086C149.172,119.844,149.173,118.758,148.473,118.758z"
				/>
			<path style="fill:#E3D4D4;" d="M146.963,115.437c-0.699,0-0.7,1.086,0,1.086C147.662,116.523,147.663,115.437,146.963,115.437z"
				/>
			<path style="fill:#E3D4D4;" d="M145.151,118.456c-0.699,0-0.7,1.086,0,1.086C145.85,119.543,145.851,118.456,145.151,118.456z"/>
			<path style="fill:#E3D4D4;" d="M165.987,107.434c-0.699,0-0.7,1.086,0,1.086C166.686,108.521,166.687,107.434,165.987,107.434z"
				/>
			<path style="fill:#E3D4D4;" d="M161.156,107.434c-0.699,0-0.7,1.086,0,1.086C161.855,108.521,161.856,107.434,161.156,107.434z"
				/>
			<path style="fill:#E3D4D4;" d="M166.289,102.603c-0.699,0-0.7,1.086,0,1.086C166.988,103.689,166.989,102.603,166.289,102.603z"
				/>
			<path style="fill:#E3D4D4;" d="M172.027,109.095c-0.699,0-0.7,1.086,0,1.086C172.726,110.181,172.727,109.095,172.027,109.095z"
				/>
			<path style="fill:#E3D4D4;" d="M173.839,105.17c-0.699,0-0.7,1.086,0,1.086C174.537,106.256,174.539,105.17,173.839,105.17z"/>
			<path style="fill:#E3D4D4;" d="M177.311,111.813c-0.699,0-0.7,1.086,0,1.086C178.01,112.899,178.011,111.813,177.311,111.813z"/>
			<path style="fill:#E3D4D4;" d="M180.331,108.189c-0.699,0-0.7,1.086,0,1.086C181.03,109.275,181.031,108.189,180.331,108.189z"/>
			<path style="fill:#E3D4D4;" d="M180.482,117.852c-0.699,0-0.7,1.086,0,1.086C181.181,118.939,181.182,117.852,180.482,117.852z"
				/>
			<path style="fill:#E3D4D4;" d="M183.653,116.493c-0.699,0-0.7,1.086,0,1.086C184.352,117.58,184.353,116.493,183.653,116.493z"/>
		</g>
	</g>
	<g>
		<g>
			<defs>
				<path id="SVGID_00000155114338099887889750000009942484689731180205_" d="M289.753,131.385c0,5.887-1.164,11.498-3.271,16.623
					c-6.541,15.921-22.204,27.131-40.483,27.131s-33.942-11.21-40.483-27.131c-2.106-5.125-3.27-10.736-3.27-16.623
					c0-24.16,19.587-43.754,43.753-43.754C270.166,87.631,289.753,107.225,289.753,131.385z"/>
			</defs>
			<clipPath id="SVGID_00000102545744589294532690000002718542989841045640_">
				<use xlink:href="#SVGID_00000155114338099887889750000009942484689731180205_"  style="overflow:visible;"/>
			</clipPath>
			<path style="clip-path:url(#SVGID_00000102545744589294532690000002718542989841045640_);fill:#FFFFFF;" d="M289.753,131.385
				c0,5.887-1.164,11.498-3.271,16.623c-6.541,15.921-22.204,27.131-40.483,27.131s-33.942-11.21-40.483-27.131
				c-2.106-5.125-3.27-10.736-3.27-16.623c0-24.16,19.587-43.754,43.753-43.754C270.166,87.631,289.753,107.225,289.753,131.385z"/>
			<path style="clip-path:url(#SVGID_00000102545744589294532690000002718542989841045640_);fill:#E9A497;" d="M286.483,148.008
				c-6.541,15.921-22.204,27.131-40.483,27.131s-33.942-11.21-40.483-27.131H286.483z"/>
			<g style="clip-path:url(#SVGID_00000102545744589294532690000002718542989841045640_);">
				<path style="fill:#3C221D;" d="M289.753,148.642h-87.507c-0.35,0-0.634-0.284-0.634-0.634c0-0.35,0.284-0.634,0.634-0.634
					h87.507c0.35,0,0.634,0.284,0.634,0.634C290.387,148.358,290.104,148.642,289.753,148.642z"/>
			</g>
			<g style="clip-path:url(#SVGID_00000102545744589294532690000002718542989841045640_);">
				<path style="fill:#523029;" d="M250.52,71.914c0,0-15.464,18.606-10.51,85.355c0.995,13.411,17.904,6.767,15.571-6.622
					C251.093,124.895,241.166,127.774,250.52,71.914z"/>
				<path style="fill:#523029;" d="M228.876,75.845c0,0-13.627,16.395-9.262,75.214c0.877,11.817,15.777,5.963,13.721-5.835
					C229.381,122.531,220.633,125.067,228.876,75.845z"/>
				<path style="fill:#523029;" d="M271.427,75.845c0,0-13.627,16.395-9.262,75.214c0.877,11.817,15.777,5.963,13.721-5.835
					C271.932,122.531,263.184,125.067,271.427,75.845z"/>
				<g>
					<path style="fill:#3C221D;" d="M246.178,165.232c-0.908,0-1.784-0.173-2.585-0.527c-2.445-1.082-3.943-3.706-4.215-7.388
						c-4.916-66.243,10.017-85.04,10.655-85.807c0.183-0.22,0.491-0.29,0.751-0.171c0.26,0.119,0.409,0.399,0.361,0.681
						c-6.722,40.14-3.512,49.645,0.553,61.678c1.597,4.728,3.248,9.618,4.507,16.841c0.877,5.033-0.789,9.748-4.457,12.615
						C250.004,164.515,248.025,165.232,246.178,165.232z M249.375,74.978c-3.8,7.152-12.617,29.904-8.733,82.245
						c0.237,3.193,1.467,5.438,3.465,6.322c2.001,0.886,4.63,0.352,6.861-1.391c3.293-2.573,4.785-6.834,3.989-11.398
						c-1.242-7.127-2.878-11.97-4.459-16.653C246.486,122.226,243.296,112.775,249.375,74.978z"/>
				</g>
				<g>
					<path style="fill:#3C221D;" d="M225.049,158.15c-0.81,0-1.592-0.154-2.307-0.471c-2.181-0.965-3.517-3.3-3.76-6.573
						c-4.334-58.403,8.843-74.989,9.406-75.666c0.183-0.22,0.491-0.29,0.751-0.171c0.26,0.119,0.408,0.399,0.361,0.681
						c-5.92,35.351-3.094,43.719,0.484,54.313c1.408,4.169,2.864,8.481,3.974,14.851c0.777,4.462-0.701,8.645-3.956,11.189
						C228.454,157.513,226.693,158.15,225.049,158.15z M227.718,78.99c-3.444,6.721-10.824,26.868-7.473,72.022
						c0.207,2.785,1.275,4.741,3.008,5.508c1.738,0.769,4.025,0.303,5.969-1.216c2.88-2.25,4.183-5.978,3.487-9.972
						c-1.093-6.275-2.534-10.539-3.926-14.663C225.262,120.241,222.458,111.934,227.718,78.99z"/>
				</g>
				<g>
					<path style="fill:#3C221D;" d="M267.6,158.15c-0.81,0-1.593-0.154-2.308-0.471c-2.181-0.965-3.517-3.3-3.759-6.573
						c-4.334-58.403,8.843-74.989,9.406-75.666c0.184-0.221,0.491-0.291,0.752-0.171c0.26,0.119,0.408,0.399,0.361,0.681
						c-5.92,35.351-3.094,43.719,0.484,54.313c1.408,4.169,2.864,8.481,3.975,14.851c0.777,4.463-0.701,8.645-3.956,11.189
						C271.006,157.513,269.245,158.15,267.6,158.15z M270.27,78.99c-3.444,6.72-10.823,26.868-7.473,72.021
						c0.207,2.785,1.275,4.741,3.008,5.508c1.738,0.77,4.025,0.304,5.969-1.216c2.88-2.25,4.183-5.978,3.487-9.972
						c-1.093-6.275-2.534-10.539-3.926-14.663C267.814,120.241,265.009,111.934,270.27,78.99z"/>
				</g>
				<g>
					<path style="fill:#3C221D;" d="M218.853,133.079c-0.347,0-0.631-0.28-0.634-0.628c-0.003-0.35,0.278-0.637,0.628-0.64
						c3.357-0.033,6.762-1.051,9.587-2.865c0.295-0.19,0.687-0.104,0.876,0.191c0.189,0.294,0.104,0.686-0.191,0.876
						c-3.024,1.941-6.667,3.03-10.26,3.066C218.857,133.079,218.855,133.079,218.853,133.079z"/>
				</g>
				<g>
					<path style="fill:#3C221D;" d="M219.19,138.282c-0.339,0-0.62-0.268-0.633-0.61c-0.013-0.35,0.26-0.644,0.61-0.657
						c3.727-0.139,7.382-1.726,10.028-4.354c0.248-0.247,0.65-0.245,0.896,0.003c0.247,0.249,0.245,0.65-0.003,0.896
						c-2.869,2.849-6.832,4.57-10.873,4.721C219.206,138.282,219.198,138.282,219.19,138.282z"/>
				</g>
				<g>
					<path style="fill:#3C221D;" d="M223.349,142.858c-1.501,0-3.003-0.182-4.462-0.551c-0.34-0.086-0.545-0.43-0.459-0.77
						c0.085-0.34,0.429-0.547,0.77-0.459c4.201,1.062,8.779,0.457,12.559-1.662c0.305-0.171,0.692-0.063,0.863,0.243
						c0.171,0.305,0.062,0.691-0.243,0.863C229.63,142.062,226.49,142.858,223.349,142.858z"/>
				</g>
				<g>
					<path style="fill:#3C221D;" d="M222.31,148.315c-1.01,0-2.02-0.078-3.018-0.238c-0.346-0.055-0.581-0.38-0.526-0.726
						c0.055-0.346,0.381-0.584,0.726-0.526c4.481,0.715,9.217-0.315,12.995-2.828c0.292-0.193,0.686-0.115,0.879,0.177
						c0.194,0.291,0.115,0.685-0.177,0.879C229.991,147.18,226.15,148.315,222.31,148.315z"/>
				</g>
				<g>
					<path style="fill:#3C221D;" d="M225.87,151.784c-2.191,0-4.381-0.339-6.481-1.02c-0.333-0.108-0.516-0.465-0.408-0.798
						c0.108-0.333,0.467-0.516,0.798-0.408c4.213,1.364,8.818,1.268,12.969-0.271c0.326-0.121,0.693,0.045,0.815,0.374
						c0.122,0.328-0.046,0.693-0.374,0.815C230.841,151.347,228.356,151.784,225.87,151.784z"/>
				</g>
				<g>
					<path style="fill:#3C221D;" d="M244.715,158.412c-1.685,0-3.365-0.221-4.981-0.673c-0.337-0.094-0.534-0.445-0.439-0.782
						c0.094-0.337,0.444-0.535,0.782-0.439c5.159,1.446,11.032,0.355,15.328-2.848c0.281-0.209,0.678-0.151,0.887,0.129
						c0.209,0.281,0.152,0.678-0.129,0.887C252.904,157.116,248.797,158.412,244.715,158.412z"/>
				</g>
				<g>
					<path style="fill:#3C221D;" d="M239.567,149.208c-0.325,0-0.602-0.249-0.631-0.579c-0.03-0.349,0.228-0.656,0.576-0.686
						c4.931-0.429,9.707-2.117,13.812-4.882c0.291-0.196,0.684-0.119,0.88,0.172c0.196,0.29,0.119,0.684-0.172,0.88
						c-4.283,2.884-9.266,4.645-14.41,5.093C239.604,149.208,239.585,149.208,239.567,149.208z"/>
				</g>
				<g>
					<path style="fill:#3C221D;" d="M241.336,153.543c-0.519,0-1.036-0.016-1.554-0.047c-0.349-0.021-0.616-0.322-0.594-0.671
						c0.021-0.35,0.33-0.614,0.671-0.594c5.302,0.322,10.67-1.096,15.121-3.991c0.293-0.191,0.686-0.108,0.877,0.186
						c0.191,0.293,0.108,0.686-0.186,0.877C251.428,152.061,246.391,153.543,241.336,153.543z"/>
				</g>
				<g>
					<path style="fill:#3C221D;" d="M243.323,142.354c-1.273,0-2.543-0.1-3.792-0.304c-0.346-0.056-0.58-0.382-0.524-0.727
						c0.056-0.346,0.382-0.584,0.727-0.524c4.325,0.702,8.908,0.107,12.909-1.677c0.318-0.144,0.695,0.001,0.837,0.321
						c0.143,0.32-0.001,0.695-0.321,0.837C250.092,141.647,246.699,142.354,243.323,142.354z"/>
				</g>
				<g>
					<path style="fill:#3C221D;" d="M240.738,137.856c-0.639,0-1.278-0.034-1.914-0.103c-0.348-0.038-0.599-0.351-0.561-0.699
						c0.038-0.348,0.352-0.598,0.699-0.561c4.09,0.447,8.356-0.671,11.703-3.063c0.285-0.204,0.681-0.138,0.884,0.147
						c0.204,0.285,0.138,0.681-0.147,0.884C248.325,136.659,244.524,137.856,240.738,137.856z"/>
				</g>
				<g>
					<path style="fill:#3C221D;" d="M265.895,136.673c-1.473,0-2.943-0.193-4.357-0.583c-0.337-0.093-0.535-0.442-0.442-0.78
						c0.094-0.338,0.441-0.533,0.78-0.442c3.488,0.964,7.363,0.622,10.629-0.938c0.315-0.152,0.694-0.018,0.845,0.299
						c0.151,0.316,0.017,0.695-0.299,0.845C270.837,136.132,268.362,136.673,265.895,136.673z"/>
				</g>
				<g>
					<path style="fill:#3C221D;" d="M262.034,142.465c-0.067,0-0.135,0-0.203-0.001c-0.35-0.004-0.631-0.29-0.627-0.64
						c0.004-0.348,0.287-0.627,0.634-0.627c0.044-0.006,0.131,0.001,0.197,0.001c4.191,0,8.294-1.432,11.574-4.044
						c0.275-0.219,0.673-0.173,0.891,0.101c0.218,0.274,0.173,0.673-0.101,0.891C270.895,140.935,266.511,142.465,262.034,142.465z"
						/>
				</g>
				<g>
					<path style="fill:#3C221D;" d="M266.399,145.713c-1.54,0-3.082-0.197-4.584-0.597c-0.339-0.09-0.54-0.437-0.45-0.776
						c0.09-0.339,0.443-0.537,0.776-0.449c4.244,1.129,9.032,0.464,12.807-1.782c0.303-0.178,0.69-0.08,0.869,0.221
						c0.179,0.301,0.081,0.69-0.22,0.869C272.809,144.856,269.611,145.713,266.399,145.713z"/>
				</g>
				<g>
					<path style="fill:#3C221D;" d="M262.533,150.852c-0.097,0-0.193-0.001-0.29-0.002c-0.35-0.005-0.63-0.293-0.625-0.643
						c0.005-0.35,0.275-0.637,0.643-0.625c4.625,0.067,9.323-1.598,12.876-4.569c0.27-0.224,0.669-0.188,0.893,0.08
						c0.225,0.269,0.189,0.668-0.079,0.893C272.244,149.087,267.368,150.852,262.533,150.852z"/>
				</g>
				<g>
					<path style="fill:#3C221D;" d="M266.094,154.546c-1.058,0-2.115-0.101-3.153-0.308c-0.344-0.068-0.566-0.402-0.498-0.745
						c0.068-0.343,0.404-0.566,0.745-0.498c4.229,0.843,8.802-0.212,12.234-2.822c0.278-0.212,0.677-0.158,0.888,0.121
						c0.212,0.279,0.158,0.677-0.121,0.888C273.315,153.368,269.702,154.546,266.094,154.546z"/>
				</g>
			</g>
			<g style="clip-path:url(#SVGID_00000102545744589294532690000002718542989841045640_);">
				<path style="fill:#E3D4D4;" d="M256.991,145.926c-0.345-0.608-0.314-1.374-0.081-2.033c0.132-0.37,0.324-0.72,0.537-1.049
					c0.613-0.152,1.186-0.771,1.86-0.842c0.71-0.071,1.348,0.522,1.577,1.196c0.233,0.679,0.147,1.414,0.061,2.124
					c-0.051,0.411-0.101,0.826-0.269,1.206c-0.162,0.385-0.456,0.73-0.852,0.857c-0.527,0.167-1.09-0.081-1.572-0.355
					C257.762,146.752,257.275,146.417,256.991,145.926z"/>
				<path style="fill:#E3D4D4;" d="M221.76,157.58c1.678,0.461,3.462,0.218,5.171-0.117c1.708-0.335,3.432-0.76,5.166-0.659
					c0.041,0,0.076,0.005,0.117,0.01c1.48,0.111,2.991,0.679,3.939,1.784c1.501,0.781,3.087,1.435,4.704,1.115
					c0.107,1.642-1.318,3.016-2.844,3.63c-1.531,0.608-3.214,0.71-4.77,1.242c-1.556,0.532-3.092,1.713-3.244,3.346
					C226.018,165.848,225.775,159.587,221.76,157.58z"/>
				<path style="fill:#E3D4D4;" d="M275.008,158.441c0.487,0.477,0.091,1.288-0.314,1.835c-0.806,1.085-1.622,2.18-2.687,3.006
					c-1.065,0.831-2.428,1.369-3.761,1.166c-2.641-0.4-4.182-3.411-6.752-4.147c-0.811-0.228-1.835-0.329-2.159-1.105
					c-0.259-0.608,0.127-1.333,0.684-1.688c0.314-0.193,0.664-0.304,1.029-0.37c0.882-0.938,2.535-0.943,3.777-0.426
					c1.389,0.578,2.555,1.622,3.969,2.134c1.414,0.507,3.031,0.431,4.395-0.218C273.776,158.35,274.536,157.99,275.008,158.441z"/>
				<path style="fill:#E3D4D4;" d="M281.557,157.124c-1.014,0.841-2.469,1.12-3.726,0.72c-1.359-0.431-2.459-1.587-3.873-1.729
					c-0.426-0.046-0.907-0.015-1.207-0.314c-0.456-0.461-0.101-1.237,0.294-1.749c0.913-1.186,1.962-2.276,3.118-3.224l0.01,0.015
					c0.269-0.218,0.735-0.223,1.039-0.01c0.395,0.284,0.568,0.776,0.705,1.242c0.142,0.466,0.294,0.958,0.664,1.272
					c0.649,0.537,1.653,0.253,2.337-0.238c0.441-0.314,0.963-0.735,1.465-0.522c0.37,0.157,0.527,0.603,0.578,1.009
					C283.123,154.903,282.576,156.282,281.557,157.124z"/>
				<path style="fill:#E3D4D4;" d="M276.69,141.201c0.02-0.299,0.213-0.553,0.395-0.786c0.923-1.151,1.84-2.312,2.758-3.467
					c0.122,0.081,0.223,0.213,0.264,0.355c0.096,0.309,0.046,0.649,0.157,0.948c0.208,0.553,0.887,0.791,1.135,1.323
					c0.309,0.649-0.147,1.389-0.583,1.962c-0.507,0.674-1.151,1.414-1.992,1.369c-0.446-0.02-0.841-0.264-1.217-0.502
					C277.157,142.119,276.655,141.733,276.69,141.201z"/>
				<path style="fill:#E3D4D4;" d="M215.895,149.616c-0.573-0.862-0.248-2.033,0.238-2.95c0.198-0.37,0.421-0.735,0.613-1.11
					c0.198-0.223,0.38-0.466,0.553-0.705c0.492-0.684,0.963-1.414,1.643-1.921c0.679-0.507,1.637-0.745,2.382-0.34
					c0.695,0.375,1.029,1.201,1.085,1.992c0.056,0.786-0.117,1.566-0.167,2.357c-0.091,1.419,0.218,2.869,0.877,4.132
					c0.223,0.431,0.497,0.857,0.558,1.338c0.061,0.482-0.172,1.044-0.644,1.166c-0.36,0.091-0.725-0.096-1.049-0.274
					c-1.607-0.897-3.214-1.794-4.826-2.687C216.686,150.351,216.194,150.072,215.895,149.616z"/>
				<path style="fill:#E3D4D4;" d="M235.761,168.159c0.081,0.258-0.03,0.532-0.137,0.781c-0.999,2.286-1.992,4.573-2.986,6.859
					c-0.238,0.542-0.482,1.095-0.917,1.495c-0.771,0.705-1.967,0.735-2.966,0.416c-2.433-0.786-3.949-3.488-3.736-6.032
					c1.455,0.162,2.966-0.218,4.314-0.831c1.642-0.75,3.112-1.83,4.648-2.778c0.294-0.183,0.603-0.365,0.948-0.39
					C235.275,167.652,235.665,167.825,235.761,168.159z"/>
				<path style="fill:#E3D4D4;" d="M221.471,169.528c0.102,0.309,0.218,0.629,0.198,0.953c-0.025,0.329-0.223,0.669-0.548,0.735
					c-0.253,0.051-0.507-0.076-0.73-0.203c-4.182-2.408-6.727-7.391-6.251-12.186c1.156-0.269,2.362-0.365,3.508-0.086
					c1.237,0.299,2.403,1.1,2.92,2.266c0.563,1.267,0.309,2.727,0.269,4.111C220.792,166.613,221.01,168.109,221.471,169.528z"/>
				<path style="fill:#E3D4D4;" d="M251.745,174.967c-0.654,1.272-2.144,1.937-3.574,1.992c-1.43,0.056-2.824-0.385-4.182-0.826
					c-1.79-0.578-3.584-1.161-5.373-1.739c-0.613-0.198-1.247-0.411-1.703-0.862c-0.456-0.456-0.659-1.232-0.279-1.749
					c0.335-0.456,0.973-0.552,1.531-0.517c2.185,0.157,3.949,1.764,5.921,2.712c2.251,1.085,4.902,1.308,7.3,0.608
					C251.557,174.653,251.699,174.79,251.745,174.967z"/>
				<path style="fill:#E3D4D4;" d="M253.58,169.188c-1.267,0.918-2.134,2.398-3.584,2.981c-1.414,0.568-3.052,0.127-4.344-0.679
					c-1.288-0.811-2.322-1.952-3.467-2.95c-1.47-1.283-3.138-2.337-4.922-3.118c2.063-1.764,5.48-0.178,7.852-1.495
					c0.821-0.456,1.43-1.212,2.2-1.744c0.208-0.147,0.441-0.269,0.689-0.36c1.227-0.583,2.96,0.041,3.417,1.359
					c0.183,0.527,0.183,1.115,0.451,1.602c0.451,0.816,1.541,1.09,2.453,0.907c0.918-0.182,1.719-0.71,2.53-1.166
					c0.39-0.223,0.811-0.436,1.262-0.451s0.943,0.223,1.08,0.654c0.101,0.324-0.01,0.674-0.172,0.973
					C257.98,167.627,255.349,167.901,253.58,169.188z"/>
				<path style="fill:#E3D4D4;" d="M267.328,166.963c0.841,0.806,1.424,2.099,0.902,3.143c-0.456,0.912-1.536,1.283-2.514,1.566
					c-2.9,0.842-5.799,1.683-8.694,2.53c-0.279,0.081-0.568,0.162-0.852,0.107c-0.279-0.061-0.548-0.299-0.527-0.588
					c0.01-0.177,0.122-0.329,0.233-0.471c1.039-1.333,2.078-2.666,3.113-4c1.09-1.399,2.235-2.839,3.726-3.751
					C264.362,165.255,266.121,165.802,267.328,166.963z"/>
				<g>
					<path style="fill:#3C221D;" d="M259.464,148.074c-0.57,0-1.099-0.251-1.524-0.492c-0.501-0.284-1.125-0.694-1.498-1.339
						c-0.001-0.002-0.001-0.003-0.002-0.005c-0.403-0.712-0.449-1.644-0.128-2.557c0.134-0.375,0.331-0.762,0.603-1.182
						c0.087-0.135,0.223-0.232,0.379-0.271c0.181-0.045,0.401-0.178,0.634-0.319c0.375-0.227,0.799-0.483,1.313-0.537
						c1.07-0.11,1.942,0.735,2.243,1.623c0.281,0.822,0.18,1.662,0.09,2.404c-0.054,0.436-0.115,0.922-0.318,1.385
						c-0.248,0.591-0.701,1.033-1.238,1.205C259.831,148.049,259.646,148.074,259.464,148.074z M257.542,145.611
						c0.219,0.377,0.641,0.651,1.024,0.869c0.311,0.176,0.76,0.4,1.068,0.302c0.18-0.058,0.352-0.244,0.459-0.499
						c0.133-0.302,0.176-0.656,0.223-1.032c0.078-0.641,0.158-1.299-0.03-1.848c-0.136-0.402-0.526-0.815-0.914-0.771
						c-0.23,0.024-0.5,0.188-0.786,0.361c-0.228,0.138-0.464,0.28-0.722,0.381c-0.157,0.263-0.275,0.504-0.355,0.731
						C257.311,144.661,257.324,145.224,257.542,145.611z"/>
				</g>
				<g>
					<path style="fill:#3C221D;" d="M229.998,168.565c-0.101,0-0.202-0.024-0.294-0.072c-2.156-1.128-3.274-3.32-4.356-5.438
						c-1.048-2.052-2.037-3.991-3.871-4.908c-0.292-0.146-0.425-0.489-0.308-0.794c0.116-0.305,0.444-0.472,0.76-0.384
						c1.546,0.425,3.26,0.19,4.881-0.128l0.728-0.146c1.489-0.302,3.029-0.611,4.597-0.524c0.025,0,0.083,0.005,0.145,0.012
						c1.734,0.131,3.288,0.824,4.27,1.907c1.347,0.694,2.782,1.28,4.184,1.002c0.179-0.035,0.365,0.008,0.509,0.119
						c0.145,0.111,0.235,0.279,0.246,0.462c0.129,1.99-1.534,3.573-3.24,4.258c-0.882,0.35-1.797,0.54-2.682,0.723
						c-0.742,0.154-1.443,0.299-2.12,0.531c-1.218,0.417-2.688,1.401-2.818,2.805c-0.02,0.21-0.143,0.397-0.328,0.498
						C230.206,168.539,230.102,168.565,229.998,168.565z M223.951,158.466c1.059,1.14,1.8,2.592,2.525,4.012
						c0.894,1.75,1.744,3.417,3.113,4.447c0.571-1.476,2.071-2.468,3.447-2.939c0.752-0.257,1.526-0.417,2.273-0.572
						c0.87-0.18,1.691-0.35,2.468-0.659c1.026-0.413,2.091-1.274,2.376-2.325c-1.523,0.043-2.953-0.57-4.295-1.268
						c-0.072-0.037-0.136-0.088-0.188-0.15c-0.758-0.884-2.036-1.454-3.506-1.565l-0.031-0.641l-0.044,0.632
						c-1.435-0.082-2.892,0.213-4.301,0.5l-0.737,0.148C226.044,158.283,224.997,158.45,223.951,158.466z"/>
				</g>
				<g>
					<path style="fill:#3C221D;" d="M268.806,165.124c-0.222,0-0.441-0.016-0.656-0.049c-1.579-0.24-2.761-1.263-3.905-2.254
						c-0.952-0.824-1.851-1.603-2.926-1.91c-0.132-0.037-0.272-0.071-0.415-0.106c-0.785-0.191-1.764-0.428-2.155-1.365
						c-0.407-0.958,0.174-1.987,0.928-2.467c0.314-0.192,0.66-0.329,1.06-0.419c1.153-1.05,3.025-0.97,4.33-0.427
						c0.697,0.29,1.33,0.683,1.942,1.063c0.673,0.417,1.309,0.811,1.998,1.061c1.268,0.454,2.692,0.384,3.907-0.194
						c0.654-0.309,1.743-0.826,2.53-0.073c0.002,0.002,0.004,0.003,0.005,0.005c0.636,0.622,0.545,1.594-0.248,2.665
						c-0.82,1.104-1.667,2.244-2.807,3.13C271.282,164.652,270.005,165.124,268.806,165.124z M263.101,156.999
						c-0.621,0-1.211,0.169-1.592,0.574c-0.093,0.099-0.215,0.165-0.349,0.189c-0.328,0.059-0.592,0.153-0.811,0.287
						c-0.298,0.19-0.555,0.61-0.432,0.899c0.135,0.324,0.597,0.458,1.287,0.626c0.157,0.038,0.312,0.076,0.461,0.118
						c1.347,0.385,2.396,1.293,3.41,2.171c1.054,0.912,2.049,1.774,3.266,1.958c1.03,0.157,2.229-0.221,3.277-1.039
						c1.005-0.78,1.799-1.85,2.568-2.884c0.35-0.473,0.48-0.897,0.383-1.002c-0.16-0.143-0.8,0.159-1.107,0.305
						c-1.517,0.722-3.295,0.81-4.881,0.242c-0.816-0.295-1.538-0.743-2.236-1.176c-0.596-0.369-1.159-0.718-1.762-0.969
						C264.13,157.111,263.605,156.999,263.101,156.999z"/>
				</g>
				<g>
					<path style="fill:#3C221D;" d="M278.999,158.655c-0.462,0-0.922-0.068-1.361-0.208c-0.642-0.203-1.209-0.538-1.757-0.861
						c-0.673-0.397-1.309-0.772-1.986-0.84c-0.077-0.008-0.152-0.014-0.228-0.019c-0.403-0.029-0.954-0.068-1.364-0.478
						c-0.609-0.615-0.516-1.605,0.24-2.584c0.953-1.238,2.036-2.358,3.218-3.327c0.056-0.046,0.12-0.082,0.187-0.106
						c0.486-0.277,1.15-0.252,1.628,0.082c0.566,0.407,0.787,1.03,0.949,1.583c0.115,0.376,0.236,0.772,0.466,0.968
						c0.36,0.298,1.057,0.09,1.556-0.27l0.096-0.069c0.474-0.342,1.19-0.86,1.987-0.522c0.525,0.222,0.866,0.76,0.959,1.514
						c0.189,1.514-0.451,3.121-1.629,4.094C281.143,158.29,280.068,158.655,278.999,158.655z M276.464,151.402
						c-1.068,0.889-2.049,1.91-2.917,3.037c-0.34,0.441-0.43,0.831-0.345,0.916c0.073,0.073,0.34,0.092,0.555,0.107
						c0.09,0.007,0.18,0.013,0.268,0.023c0.951,0.095,1.738,0.56,2.5,1.009c0.51,0.301,0.992,0.585,1.497,0.745
						c1.055,0.336,2.283,0.099,3.129-0.604c0.001,0,0.001-0.001,0.001-0.001c0.852-0.704,1.315-1.866,1.179-2.961
						c-0.038-0.306-0.137-0.479-0.196-0.503c-0.138-0.056-0.536,0.229-0.75,0.383l-0.1,0.072c-0.896,0.644-2.206,0.958-3.109,0.21
						c-0.52-0.441-0.712-1.07-0.866-1.575c-0.105-0.357-0.234-0.744-0.468-0.912c-0.077-0.054-0.231-0.043-0.27-0.013
						C276.539,151.361,276.503,151.383,276.464,151.402z"/>
				</g>
				<g>
					<path style="fill:#3C221D;" d="M278.899,143.54c-0.036,0-0.072-0.001-0.109-0.003c-0.621-0.028-1.142-0.358-1.522-0.6
						c-0.347-0.219-1.275-0.803-1.21-1.778l0,0c0.033-0.502,0.331-0.883,0.529-1.135c0.728-0.908,1.448-1.816,2.168-2.724
						l0.592-0.747c0.205-0.258,0.573-0.317,0.849-0.133c0.249,0.167,0.44,0.424,0.521,0.707c0.063,0.2,0.079,0.401,0.094,0.577
						c0.01,0.129,0.021,0.25,0.049,0.325c0.05,0.133,0.219,0.279,0.399,0.433c0.253,0.217,0.54,0.464,0.717,0.843
						c0.515,1.08-0.334,2.195-0.653,2.614C280.923,142.449,280.103,143.54,278.899,143.54z M279.608,138.264
						c-0.674,0.851-1.349,1.702-2.028,2.547c-0.103,0.131-0.25,0.319-0.257,0.431c0,0,0,0.001,0,0.001
						c-0.007,0.101,0.095,0.291,0.623,0.622c0.29,0.184,0.617,0.392,0.907,0.405c0.503,0.03,1.03-0.548,1.457-1.116
						c0.473-0.622,0.642-1.048,0.518-1.308c-0.064-0.137-0.225-0.275-0.397-0.423c-0.265-0.227-0.594-0.511-0.76-0.949
						C279.645,138.403,279.624,138.333,279.608,138.264z M276.691,141.201h0.006H276.691z"/>
				</g>
				<g>
					<path style="fill:#3C221D;" d="M222.841,154.232c-0.476,0-0.892-0.227-1.161-0.374c-1.611-0.9-3.218-1.796-4.829-2.688
						c-0.49-0.274-1.097-0.613-1.485-1.205c-0.609-0.918-0.535-2.195,0.208-3.596c0.09-0.169,0.185-0.335,0.279-0.502
						c0.113-0.199,0.226-0.399,0.331-0.601c0.024-0.047,0.054-0.091,0.089-0.13c0.188-0.212,0.365-0.451,0.514-0.656l0.182-0.255
						c0.453-0.639,0.921-1.3,1.595-1.803c0.968-0.723,2.171-0.875,3.065-0.388c0.805,0.435,1.334,1.371,1.414,2.504
						c0.041,0.571-0.024,1.12-0.087,1.651c-0.031,0.263-0.063,0.526-0.08,0.791c-0.083,1.294,0.203,2.643,0.806,3.798l0.119,0.224
						c0.207,0.382,0.441,0.815,0.506,1.327c0.093,0.738-0.266,1.64-1.114,1.859C223.072,154.219,222.954,154.232,222.841,154.232z
						 M217.274,145.915c-0.102,0.194-0.211,0.386-0.319,0.577c-0.089,0.157-0.178,0.314-0.263,0.472
						c-0.239,0.452-0.747,1.583-0.27,2.301c0.001,0.001,0.002,0.002,0.003,0.003c0.218,0.332,0.637,0.567,1.041,0.793
						c1.61,0.891,3.218,1.789,4.826,2.687c0.155,0.085,0.45,0.251,0.585,0.213c0.096-0.025,0.198-0.253,0.17-0.472
						c-0.035-0.277-0.194-0.572-0.363-0.884l-0.129-0.242c-0.708-1.356-1.044-2.942-0.946-4.464
						c0.019-0.288,0.052-0.574,0.086-0.859c0.059-0.494,0.114-0.961,0.081-1.412c-0.038-0.539-0.256-1.211-0.754-1.48
						c-0.525-0.286-1.233-0.06-1.702,0.29c-0.514,0.383-0.905,0.935-1.319,1.52l-0.188,0.263
						C217.66,145.434,217.477,145.68,217.274,145.915z"/>
				</g>
				<g>
					<path style="fill:#3C221D;" d="M229.97,178.543c-0.452,0-0.927-0.076-1.408-0.229c-2.629-0.849-4.423-3.724-4.175-6.689
						c0.014-0.171,0.097-0.328,0.229-0.437c0.132-0.108,0.302-0.159,0.473-0.14c1.193,0.133,2.569-0.136,3.981-0.778
						c1.134-0.518,2.22-1.224,3.271-1.906c0.434-0.282,0.868-0.563,1.307-0.835c0.285-0.177,0.718-0.445,1.235-0.483
						c0.589-0.048,1.288,0.263,1.485,0.932c0.149,0.487-0.045,0.941-0.161,1.212c-0.976,2.234-1.946,4.465-2.915,6.695l-0.072,0.167
						c-0.251,0.572-0.535,1.218-1.07,1.71C231.587,178.276,230.82,178.543,229.97,178.543z M225.637,172.348
						c0.076,2.137,1.446,4.155,3.314,4.759c0.729,0.233,1.728,0.282,2.343-0.28c0.338-0.31,0.545-0.783,0.765-1.283l0.071-0.164
						c0.969-2.231,1.939-4.462,2.914-6.693c0.033-0.077,0.112-0.262,0.112-0.335c-0.028-0.02-0.094-0.043-0.179-0.042
						c-0.191,0.014-0.412,0.143-0.661,0.297c-0.432,0.266-0.857,0.543-1.283,0.819c-1.089,0.708-2.216,1.439-3.436,1.997
						C228.233,172.043,226.872,172.358,225.637,172.348z M235.153,168.337c0.001,0.002,0.001,0.004,0.002,0.006
						C235.154,168.339,235.153,168.339,235.153,168.337z"/>
				</g>
				<g>
					<path style="fill:#3C221D;" d="M221.006,171.861c-0.407,0-0.749-0.195-0.928-0.297c-4.367-2.514-7.067-7.777-6.568-12.8
						c0.027-0.27,0.223-0.493,0.487-0.555c1.429-0.332,2.672-0.359,3.801-0.085c1.533,0.37,2.785,1.352,3.35,2.625
						c0.509,1.148,0.436,2.366,0.365,3.545c-0.017,0.282-0.034,0.563-0.042,0.842c-0.043,1.42,0.16,2.831,0.603,4.195l0.023,0.072
						c0.108,0.327,0.231,0.697,0.204,1.118c-0.051,0.663-0.484,1.201-1.054,1.316C221.165,171.854,221.084,171.861,221.006,171.861z
						 M214.736,159.349c-0.249,4.401,2.158,8.919,5.972,11.114c0.197,0.112,0.27,0.13,0.295,0.13h0
						c-0.014-0.004,0.027-0.072,0.034-0.161c0.01-0.167-0.064-0.393-0.143-0.631l-0.025-0.076c0-0.001,0-0.001-0.001-0.001
						c-0.488-1.503-0.712-3.059-0.664-4.625c0.008-0.291,0.026-0.585,0.044-0.88c0.065-1.074,0.126-2.089-0.258-2.954
						c-0.4-0.902-1.354-1.632-2.489-1.907C216.683,159.158,215.775,159.155,214.736,159.349z"/>
				</g>
				<g>
					<path style="fill:#3C221D;" d="M247.924,177.598c-1.475,0-2.882-0.457-4.131-0.862l-5.372-1.738
						c-0.614-0.198-1.378-0.444-1.954-1.015c-0.626-0.626-0.958-1.74-0.344-2.575c0.409-0.558,1.147-0.834,2.081-0.774
						c1.654,0.119,3.043,0.961,4.387,1.776c0.604,0.366,1.175,0.712,1.769,0.997c2.11,1.017,4.606,1.225,6.848,0.571
						c0.133-0.038,0.275-0.033,0.404,0.016c0.374,0.143,0.653,0.448,0.747,0.815c0.038,0.15,0.021,0.309-0.051,0.447
						c-0.704,1.37-2.28,2.265-4.113,2.336C248.105,177.596,248.014,177.598,247.924,177.598z M237.957,171.894
						c-0.389,0-0.688,0.095-0.813,0.265c-0.16,0.218-0.059,0.651,0.216,0.926c0.359,0.355,0.939,0.542,1.45,0.707l5.374,1.738
						c1.226,0.398,2.619,0.852,3.963,0.796c0.956-0.037,1.83-0.37,2.433-0.895c-2.269,0.43-4.685,0.123-6.769-0.882
						c-0.649-0.312-1.273-0.69-1.876-1.056c-1.271-0.77-2.471-1.498-3.815-1.595C238.063,171.895,238.009,171.894,237.957,171.894z"
						/>
				</g>
				<g>
					<path style="fill:#3C221D;" d="M248.615,173.059c-1.064,0-2.206-0.35-3.299-1.031c-0.951-0.599-1.761-1.357-2.544-2.091
						c-0.332-0.31-0.663-0.622-1.005-0.919c-1.423-1.241-3.024-2.255-4.76-3.015c-0.2-0.087-0.341-0.271-0.373-0.487
						c-0.032-0.216,0.049-0.433,0.215-0.575c1.286-1.099,2.938-1.081,4.53-1.064c1.271,0.016,2.472,0.027,3.427-0.503
						c0.407-0.226,0.769-0.551,1.153-0.895c0.31-0.278,0.631-0.565,0.994-0.816c0.248-0.176,0.53-0.323,0.831-0.433
						c0.717-0.344,1.686-0.35,2.537,0.007c0.814,0.341,1.432,0.975,1.697,1.738c0.088,0.254,0.137,0.501,0.184,0.74
						c0.057,0.287,0.111,0.559,0.223,0.763c0.31,0.56,1.129,0.721,1.774,0.592c0.672-0.134,1.296-0.494,1.956-0.875l0.388-0.222
						c0.462-0.264,0.972-0.513,1.552-0.532c0.022-0.001,0.044-0.001,0.066-0.001c0.763,0,1.432,0.444,1.639,1.097
						c0.14,0.449,0.066,0.941-0.22,1.467c-0.76,1.401-2.174,2.017-3.541,2.613c-0.764,0.333-1.485,0.647-2.087,1.085
						c0,0-0.001,0.001-0.001,0.001c-0.456,0.33-0.861,0.746-1.29,1.187c-0.701,0.72-1.426,1.465-2.429,1.868
						C249.728,172.959,249.183,173.059,248.615,173.059z M238.644,165.377c1.424,0.732,2.751,1.632,3.957,2.685
						c0.353,0.308,0.696,0.629,1.038,0.95c0.773,0.725,1.504,1.409,2.35,1.942c0.626,0.39,2.252,1.237,3.77,0.627
						c0.754-0.303,1.356-0.921,1.993-1.576c0.448-0.46,0.911-0.936,1.455-1.33c0.714-0.519,1.533-0.876,2.325-1.221
						c1.225-0.534,2.382-1.037,2.934-2.055c0.111-0.205,0.157-0.381,0.125-0.483c-0.032-0.103-0.231-0.213-0.454-0.209
						c-0.318,0.01-0.667,0.196-0.969,0.368l-0.379,0.217c-0.721,0.416-1.465,0.846-2.341,1.02c-1.066,0.213-2.5-0.079-3.132-1.223
						c-0.208-0.377-0.287-0.777-0.357-1.129c-0.041-0.206-0.079-0.401-0.138-0.572c-0.147-0.423-0.507-0.782-0.989-0.984
						c-0.524-0.22-1.106-0.224-1.557-0.009c-0.25,0.095-0.433,0.19-0.596,0.305c-0.303,0.21-0.581,0.458-0.875,0.722
						c-0.419,0.375-0.852,0.763-1.383,1.058c-1.249,0.694-2.677,0.679-4.056,0.663C240.383,165.133,239.439,165.123,238.644,165.377
						z M253.58,169.188h0.006H253.58z"/>
				</g>
				<g>
					<path style="fill:#3C221D;" d="M256.365,174.96c-0.103,0-0.209-0.009-0.317-0.03c-0.638-0.139-1.079-0.677-1.038-1.255
						c0.022-0.378,0.246-0.664,0.367-0.818c1.038-1.331,2.076-2.664,3.11-3.997c1.008-1.294,2.262-2.903,3.895-3.903
						c0.073-0.045,0.154-0.074,0.238-0.086c1.843-0.272,3.813,0.354,5.144,1.634l0,0c1.001,0.958,1.707,2.531,1.031,3.884
						c-0.566,1.132-1.796,1.57-2.905,1.892l-0.232,0.067c-2.822,0.819-5.644,1.638-8.461,2.462
						C256.973,174.876,256.684,174.96,256.365,174.96z M256.346,173.677c0.154,0.016,0.337-0.037,0.498-0.084
						c2.817-0.824,5.64-1.643,8.463-2.463l0.232-0.067c0.889-0.258,1.787-0.567,2.124-1.241c0.386-0.771-0.131-1.786-0.774-2.402
						c-0.001,0-0.001-0.001-0.001-0.001c-1.023-0.986-2.523-1.48-3.954-1.312c-1.384,0.885-2.478,2.289-3.445,3.531
						c-1.034,1.333-2.073,2.666-3.112,4C256.369,173.647,256.359,173.661,256.346,173.677z"/>
				</g>
			</g>
		</g>
		<g>
			<path style="fill:#A0C7C8;" d="M246,177.139c-18.635,0-35.252-11.136-42.333-28.371c-2.27-5.522-3.42-11.37-3.42-17.383
				c0-25.229,20.525-45.753,45.753-45.753s45.754,20.525,45.754,45.753c0,6.01-1.15,11.858-3.421,17.383
				C281.252,166.002,264.634,177.139,246,177.139z M246,89.632c-23.023,0-41.753,18.73-41.753,41.753
				c0,5.488,1.05,10.825,3.12,15.862c6.462,15.729,21.626,25.891,38.633,25.891c17.006,0,32.171-10.163,38.634-25.891
				c2.07-5.04,3.12-10.377,3.12-15.862C287.754,108.362,269.023,89.632,246,89.632z"/>
		</g>
	</g>
	<g>
		<g>
			<rect x="330.825" y="100.319" style="fill:#3C221D;" width="6.486" height="5.502"/>
			<path style="fill:#FFFFFF;" d="M347.978,113.335l-0.147,35.108c0.319,2.245-1.263,4.311-3.508,4.624
				c-2.532,0.344-6.09,0.689-10.312,0.689c-4.222,0-7.78-0.344-10.312-0.689c-2.245-0.313-3.827-2.379-3.508-4.624l-0.147-35.108
				c-0.287-2.124,1.116-4.107,3.208-4.554c0.982-0.21,2.047-0.389,3.106-0.529c0.542-0.076,1.084-0.14,1.613-0.204
				c4.011-0.453,8.067-0.453,12.079,0c0.529,0.064,1.071,0.128,1.613,0.204c1.059,0.14,2.124,0.319,3.106,0.529
				C346.862,109.228,348.265,111.211,347.978,113.335z"/>
			<path style="fill:#523029;" d="M341.671,108.22l-0.006,0.032c-0.542-0.076-1.084-0.14-1.613-0.204
				c-4.011-0.453-8.067-0.453-12.079,0c-0.529,0.064-1.071,0.128-1.613,0.204l-0.006-0.032l0.657-2.864c0,0,0.689-0.281,2.481-0.491
				c1.078-0.121,2.557-0.223,4.522-0.223c1.964,0,3.444,0.102,4.522,0.223c1.792,0.21,2.481,0.491,2.481,0.491L341.671,108.22z"/>
			<path style="fill:#523029;" d="M338.533,96.058v5.891c-1.078-0.121-2.557-0.223-4.522-0.223c-1.964,0-3.444,0.102-4.522,0.223
				v-5.891c0,0,1.244-0.446,4.522-0.446C337.289,95.612,338.533,96.058,338.533,96.058z"/>
			<polygon style="fill:#523029;" points="347.123,97.244 346.766,99.617 338.533,100.733 338.533,97.244 			"/>
			
				<ellipse transform="matrix(0.2286 -0.9735 0.9735 0.2286 127.9012 427.9638)" style="fill:#A0C7C8;" cx="334.01" cy="133.272" rx="11.408" ry="11.408"/>
			<path style="fill:#523029;" d="M335.219,112.445c0,0-8.582,12.62-5.452,23.423c3.13,10.803,12.317,4.846,8.077-1.817
				C333.604,127.387,331.374,126.179,335.219,112.445z"/>
			<g>
				<path style="fill:#3C221D;" d="M334.011,154.389c-3.511,0-7.01-0.234-10.398-0.695c-1.265-0.176-2.381-0.832-3.147-1.849
					c-0.749-0.994-1.071-2.215-0.909-3.445l-0.147-35.023c-0.305-2.419,1.317-4.705,3.709-5.216
					c0.971-0.208,2.033-0.389,3.155-0.538c0.482-0.068,0.969-0.126,1.447-0.184l0.175-0.021c4.058-0.459,8.171-0.459,12.226-0.001
					l0.178,0.021c0.478,0.058,0.965,0.116,1.452,0.185c1.117,0.148,2.179,0.329,3.151,0.537c2.391,0.51,4.013,2.796,3.709,5.216
					l-0.147,35.023c0.162,1.229-0.16,2.45-0.909,3.445c-0.766,1.016-1.883,1.673-3.146,1.848
					C341.021,154.155,337.522,154.389,334.011,154.389z M334.013,108.342c-1.995,0-3.989,0.112-5.97,0.335l-0.17,0.021
					c-0.469,0.056-0.948,0.114-1.426,0.181c-1.094,0.145-2.123,0.321-3.061,0.522c-1.762,0.376-2.954,2.066-2.712,3.849
					c0.004,0.027,0.005,0.054,0.005,0.082l0.147,35.107c0,0.031-0.002,0.062-0.006,0.092c-0.129,0.909,0.105,1.815,0.66,2.551
					c0.561,0.746,1.381,1.227,2.307,1.356c6.659,0.906,13.789,0.906,20.452,0c0.925-0.129,1.744-0.61,2.306-1.356
					c0.554-0.736,0.789-1.642,0.659-2.551c-0.004-0.03-0.006-0.061-0.006-0.092l0.147-35.107c0-0.027,0.002-0.055,0.006-0.082
					c0.241-1.783-0.951-3.473-2.712-3.849c-0.94-0.201-1.968-0.377-3.057-0.521c-0.484-0.068-0.962-0.126-1.432-0.182l-0.173-0.021
					C337.998,108.454,336.006,108.342,334.013,108.342z"/>
			</g>
			<g>
				<path style="fill:#3C221D;" d="M326.358,108.886c-0.299,0-0.563-0.212-0.622-0.513c-0.017-0.087-0.022-0.208-0.002-0.294
					l0.657-2.863c0.046-0.201,0.188-0.367,0.379-0.445c0.079-0.032,0.821-0.319,2.646-0.534c1.345-0.151,2.89-0.228,4.595-0.228
					c1.705,0,3.251,0.076,4.592,0.227c1.829,0.215,2.571,0.502,2.649,0.534c0.191,0.078,0.332,0.244,0.378,0.445l0.657,2.863
					c0.02,0.09,0.022,0.184,0.002,0.274l-0.007,0.032c-0.069,0.326-0.385,0.541-0.708,0.495c-0.479-0.067-0.957-0.125-1.427-0.181
					l-0.173-0.021c-3.955-0.446-7.972-0.446-11.932,0.001l-0.17,0.021c-0.469,0.056-0.948,0.114-1.426,0.181
					C326.417,108.884,326.387,108.886,326.358,108.886z M327.546,105.853l-0.38,1.654c0.186-0.023,0.372-0.045,0.556-0.067
					l0.175-0.021c4.058-0.459,8.171-0.459,12.226-0.001l0.178,0.021c0.184,0.022,0.37,0.045,0.556,0.067l-0.38-1.654
					c-0.339-0.092-0.986-0.236-2.017-0.358c-1.292-0.145-2.79-0.219-4.448-0.219c-1.658,0-3.155,0.074-4.451,0.219
					C328.531,105.616,327.886,105.761,327.546,105.853z"/>
			</g>
			<g>
				<path style="fill:#3C221D;" d="M338.533,102.583c-0.023,0-0.047-0.001-0.071-0.004c-1.291-0.146-2.789-0.219-4.451-0.219
					c-1.661,0-3.159,0.074-4.45,0.219c-0.185,0.019-0.359-0.037-0.493-0.157c-0.135-0.12-0.212-0.292-0.212-0.473v-5.89
					c0-0.268,0.168-0.506,0.42-0.597c0.055-0.02,1.386-0.484,4.735-0.484c3.35,0,4.681,0.464,4.736,0.484
					c0.252,0.09,0.42,0.329,0.42,0.597v5.89c0,0.181-0.077,0.352-0.212,0.473C338.839,102.526,338.688,102.583,338.533,102.583z
					 M334.011,101.092c1.416,0,2.721,0.053,3.888,0.156v-4.697c-0.587-0.122-1.817-0.306-3.888-0.306
					c-2.071,0-3.3,0.184-3.887,0.306v4.697C331.291,101.145,332.595,101.092,334.011,101.092z"/>
			</g>
			<g>
				<path style="fill:#3C221D;" d="M338.533,101.367c-0.152,0-0.301-0.055-0.417-0.157c-0.137-0.12-0.217-0.294-0.217-0.477v-3.489
					c0-0.35,0.283-0.634,0.634-0.634h8.59c0.185,0,0.36,0.081,0.48,0.22c0.121,0.14,0.174,0.325,0.147,0.508l-0.357,2.372
					c-0.042,0.279-0.263,0.496-0.542,0.534l-8.233,1.116C338.59,101.365,338.561,101.367,338.533,101.367z M339.167,97.878v2.129
					l7.043-0.955l0.176-1.174H339.167z"/>
			</g>
		</g>
		<g>
			<path style="fill:#A0C7C8;" d="M346.012,153.473v-6.626c1.09,0.076,2.587,0.141,4.574,0.141s3.484-0.064,4.574-0.141v6.626
				c0,0-1.258,0.282-4.574,0.282S346.012,153.473,346.012,153.473z"/>
			<g>
				<path style="fill:#3C221D;" d="M350.587,154.389c-3.348,0-4.659-0.285-4.713-0.298c-0.29-0.065-0.495-0.322-0.495-0.618v-6.626
					c0-0.176,0.073-0.344,0.202-0.464c0.128-0.12,0.304-0.18,0.477-0.169c1.316,0.092,2.84,0.14,4.53,0.14
					c1.691,0,3.214-0.047,4.529-0.14c0.176-0.012,0.348,0.048,0.477,0.169c0.129,0.12,0.202,0.288,0.202,0.464v6.626
					c0,0.296-0.206,0.553-0.495,0.618C355.246,154.103,353.935,154.389,350.587,154.389z M346.013,153.473h0.006H346.013z
					 M346.646,152.93c0.626,0.079,1.878,0.191,3.941,0.191c2.063,0,3.314-0.112,3.94-0.191v-5.408c-1.181,0.067-2.502,0.1-3.94,0.1
					c-1.437,0-2.759-0.033-3.941-0.1V152.93z"/>
			</g>
			<path style="fill:#523029;" d="M343.265,145.592l0.006-0.019c0.518,0.045,1.036,0.083,1.543,0.12
				c3.835,0.267,7.713,0.267,11.548,0c0.506-0.038,1.024-0.075,1.543-0.12l0.006,0.019l-0.628,1.689c0,0-0.658,0.165-2.372,0.29
				c-1.03,0.072-2.445,0.132-4.323,0.132c-1.878,0-3.293-0.06-4.323-0.132c-1.713-0.124-2.372-0.29-2.372-0.29L343.265,145.592z"/>
			<g>
				<path style="fill:#3C221D;" d="M350.587,148.337c-1.622,0-3.091-0.045-4.367-0.133c-1.751-0.127-2.454-0.3-2.483-0.307
					c-0.202-0.051-0.366-0.198-0.44-0.394l-0.628-1.689c-0.048-0.128-0.053-0.269-0.014-0.4l0.006-0.019
					c0.085-0.289,0.366-0.478,0.663-0.452c0.444,0.039,0.888,0.072,1.325,0.104l0.21,0.016c3.799,0.264,7.655,0.265,11.457,0
					l0.207-0.016c0.436-0.033,0.88-0.065,1.325-0.104c0.299-0.026,0.578,0.163,0.663,0.452c0.039,0.132,0.04,0.291-0.008,0.419
					l-0.628,1.689c-0.073,0.196-0.237,0.343-0.44,0.394c-0.029,0.007-0.732,0.18-2.481,0.307
					C353.678,148.292,352.21,148.337,350.587,148.337z M344.362,146.726c0.338,0.056,0.963,0.142,1.948,0.213
					c1.244,0.086,2.683,0.13,4.277,0.13c1.593,0,3.033-0.044,4.279-0.13c0.984-0.071,1.608-0.157,1.946-0.213l0.165-0.443
					c-0.12,0.009-0.24,0.018-0.358,0.027l-0.21,0.016c-3.864,0.269-7.779,0.269-11.639,0l-0.213-0.016
					c-0.119-0.009-0.238-0.018-0.358-0.027L344.362,146.726z"/>
			</g>
			<path style="fill:#A0C7C8;" d="M341.145,142.519c0.565-4.161,0.4-13.754-1.018-23.734c-0.216-1.518,0.854-2.915,2.371-3.126
				c1.712-0.233,5.235-0.466,8.089-0.466c2.854,0,6.378,0.233,8.089,0.466c1.518,0.211,2.587,1.608,2.371,3.126
				c-1.419,9.981-1.583,19.574-1.018,23.734c0.194,1.436-0.755,2.777-2.169,3.078c-0.664,0.142-1.384,0.263-2.1,0.358
				c-0.367,0.052-0.733,0.095-1.091,0.138c-2.712,0.306-5.454,0.306-8.166,0c-0.358-0.043-0.724-0.086-1.091-0.138
				c-0.716-0.095-1.436-0.216-2.1-0.358C341.9,145.296,340.951,143.955,341.145,142.519z"/>
			<circle style="fill:#FFFFFF;" cx="350.586" cy="131.385" r="6.772"/>
			<path style="fill:#523029;" d="M351.304,119.023c0,0-5.094,7.491-3.236,13.903c1.858,6.412,7.311,2.876,4.794-1.079
				C350.345,127.892,349.021,127.175,351.304,119.023z"/>
			<g>
				<path style="fill:#3C221D;" d="M350.586,146.957c-1.388,0-2.775-0.078-4.153-0.233l-0.091-0.011
					c-0.334-0.04-0.676-0.081-1.017-0.129c-0.758-0.1-1.481-0.223-2.144-0.365c-1.73-0.37-2.901-2.031-2.664-3.783l0,0
					c0.552-4.067,0.383-13.706-1.018-23.56c-0.127-0.896,0.103-1.789,0.649-2.513c0.551-0.731,1.354-1.203,2.262-1.329
					c1.704-0.232,5.228-0.472,8.177-0.472c2.949,0,6.473,0.24,8.175,0.472c0.91,0.127,1.713,0.599,2.264,1.329
					c0.546,0.724,0.776,1.617,0.649,2.513c-1.401,9.854-1.57,19.493-1.018,23.56c0.237,1.752-0.934,3.414-2.664,3.783
					c-0.662,0.142-1.385,0.265-2.149,0.366c-0.335,0.047-0.677,0.089-1.011,0.129l-0.087,0.01
					C353.365,146.879,351.975,146.957,350.586,146.957z M341.774,142.604c-0.149,1.099,0.586,2.141,1.673,2.373
					c0.621,0.133,1.33,0.254,2.05,0.349c0.338,0.048,0.671,0.088,0.997,0.127l0.087,0.01c2.659,0.3,5.358,0.3,8.019-0.001
					l0.082-0.01c0.326-0.039,0.659-0.079,0.991-0.126c0.726-0.096,1.434-0.217,2.055-0.35c1.088-0.232,1.822-1.275,1.673-2.373
					c-0.577-4.255-0.412-13.834,1.02-23.909c0.08-0.56-0.065-1.119-0.407-1.572c-0.347-0.46-0.852-0.757-1.424-0.837
					c-1.623-0.221-5.145-0.46-8.002-0.46c-2.857,0-6.379,0.239-8.004,0.46c-0.57,0.079-1.076,0.377-1.422,0.837
					c-0.342,0.454-0.487,1.012-0.407,1.572C342.186,128.77,342.35,138.349,341.774,142.604L341.774,142.604z"/>
			</g>
			<g>
				<path style="fill:#3C221D;" d="M350.622,151.244c-2.686,0-4.591-0.298-4.71-0.318c-0.346-0.055-0.581-0.38-0.526-0.726
					c0.056-0.346,0.381-0.582,0.726-0.525c0.042,0.007,4.277,0.667,8.958-0.002c0.347-0.052,0.668,0.191,0.717,0.538
					c0.05,0.347-0.191,0.668-0.538,0.717C353.592,151.165,352.003,151.244,350.622,151.244z"/>
			</g>
		</g>
	</g>
	<rect x="68.155" y="345.316" style="fill:#A0C7C8;" width="167.819" height="31.059"/>
	
		<ellipse transform="matrix(0.1983 -0.9802 0.9802 0.1983 63.6175 502.2668)" style="fill:#B5CFC8;" cx="338.824" cy="212.247" rx="37.345" ry="37.345"/>
	<g>
		<g>
			<path style="fill:#523029;" d="M360.622,204.791l-0.025,0.026c-0.311-0.323-0.63-0.634-0.941-0.94
				c-2.374-2.287-5.068-4.183-8.022-5.646c-0.392-0.189-0.793-0.385-1.202-0.569l0.016-0.032l2.27-2.298
				c0,0,0.637,0.067,1.962,0.713c0.793,0.394,1.841,0.992,3.146,1.911c1.305,0.918,2.222,1.703,2.86,2.317
				c1.055,1.029,1.333,1.606,1.333,1.606L360.622,204.791z"/>
			<path style="fill:#523029;" d="M365.125,195.601l-3.678,5.226c-0.823-0.74-1.994-1.7-3.633-2.853
				c-1.639-1.153-2.937-1.932-3.911-2.457l3.678-5.226c0,0,1.316,0.334,4.051,2.259
				C364.366,194.474,365.125,195.601,365.125,195.601z"/>
			<g>
				<path style="fill:#3C221D;" d="M360.597,205.451c-0.172,0-0.337-0.07-0.456-0.194c-0.278-0.288-0.561-0.566-0.839-0.839
					l-0.09-0.089c-2.32-2.235-4.966-4.097-7.858-5.53l-0.128-0.062c-0.344-0.166-0.695-0.336-1.053-0.497
					c-0.157-0.071-0.279-0.203-0.337-0.365c-0.057-0.163-0.047-0.342,0.03-0.496c0.03-0.06,0.085-0.147,0.132-0.194l2.271-2.298
					c0.135-0.137,0.323-0.203,0.517-0.185c0.077,0.008,0.788,0.098,2.173,0.773c1.002,0.497,2.089,1.157,3.233,1.962
					c1.143,0.804,2.13,1.604,2.935,2.378c1.107,1.079,1.432,1.719,1.465,1.788c0.084,0.173,0.084,0.375,0,0.549l-1.398,2.913
					c-0.028,0.06-0.067,0.115-0.112,0.163l-0.025,0.026c-0.119,0.125-0.285,0.196-0.457,0.197
					C360.598,205.451,360.598,205.451,360.597,205.451z M351.504,197.464c0.092,0.044,0.183,0.088,0.273,0.132l0.133,0.064
					c3.016,1.493,5.768,3.431,8.186,5.761l0.095,0.092c0.077,0.076,0.154,0.152,0.232,0.229l0.875-1.823
					c-0.167-0.236-0.489-0.643-1.054-1.193c-0.755-0.727-1.692-1.485-2.782-2.252c-1.092-0.768-2.122-1.394-3.063-1.861
					c-0.704-0.343-1.195-0.509-1.474-0.587L351.504,197.464z"/>
			</g>
			<g>
				<path style="fill:#3C221D;" d="M361.447,201.46c-0.155,0-0.307-0.057-0.424-0.162c-0.988-0.889-2.19-1.833-3.573-2.806
					c-1.387-0.976-2.681-1.789-3.848-2.418c-0.159-0.086-0.274-0.236-0.316-0.413c-0.041-0.176-0.005-0.362,0.099-0.51l3.678-5.226
					c0.151-0.215,0.42-0.314,0.674-0.249c0.058,0.015,1.462,0.386,4.259,2.355c2.799,1.969,3.621,3.165,3.655,3.215
					c0.147,0.218,0.144,0.504-0.007,0.719l-3.679,5.226c-0.104,0.148-0.267,0.245-0.447,0.265
					C361.494,201.459,361.47,201.46,361.447,201.46z M354.827,195.304c1.041,0.594,2.165,1.316,3.352,2.151
					c1.184,0.834,2.243,1.649,3.155,2.43l2.994-4.253c-0.407-0.447-1.317-1.337-3.061-2.564c-1.744-1.227-2.888-1.785-3.447-2.017
					L354.827,195.304z"/>
			</g>
			<path style="fill:#FFFFFF;" d="M360.85,210.89l-21.348,30.147c-1.174,2.062-3.344,3.193-4.837,2.545
				c-1.679-0.739-3.954-1.897-6.405-3.622c-2.452-1.726-4.309-3.477-5.571-4.808c-1.114-1.186-0.781-3.611,0.763-5.412
				l21.177-30.267c1.12-1.945,3.135-3.078,4.621-2.607c0.698,0.22,1.424,0.502,2.124,0.814c0.361,0.156,0.715,0.322,1.061,0.484
				c2.604,1.25,4.959,2.908,7.014,4.937c0.269,0.271,0.545,0.548,0.813,0.835c0.53,0.553,1.04,1.142,1.483,1.725
				C362.69,206.9,362.303,209.18,360.85,210.89z"/>
			<g>
				<path style="fill:#3C221D;" d="M335.595,244.401c-0.412,0-0.811-0.077-1.182-0.238c-2.269-0.998-4.461-2.238-6.517-3.686
					c-2.056-1.447-3.963-3.092-5.667-4.89c-1.357-1.445-1.03-4.194,0.743-6.261l21.139-30.217c1.246-2.168,3.551-3.412,5.332-2.847
					c0.701,0.222,1.439,0.504,2.19,0.839c0.327,0.141,0.654,0.293,0.975,0.444l0.095,0.045c2.67,1.282,5.088,2.984,7.191,5.06
					l0.079,0.079c0.251,0.252,0.505,0.509,0.753,0.775c0.562,0.588,1.077,1.186,1.524,1.773c1.128,1.481,0.741,4.056-0.898,6.002
					l-21.332,30.125C338.974,243.243,337.193,244.401,335.595,244.401z M348.539,197.393c-1.133,0-2.539,0.969-3.359,2.396
					l-21.207,30.314c-1.35,1.579-1.709,3.67-0.821,4.615c1.643,1.734,3.486,3.324,5.473,4.723c1.988,1.4,4.106,2.597,6.295,3.561
					c1.185,0.512,3.034-0.527,4.031-2.278l21.381-30.2c0.011-0.015,0.022-0.03,0.035-0.044c1.236-1.455,1.628-3.445,0.873-4.435
					c-0.412-0.542-0.909-1.12-1.437-1.671c-0.245-0.262-0.49-0.509-0.731-0.752l-0.074-0.075c-1.999-1.973-4.301-3.594-6.838-4.812
					l-0.09-0.042c-0.31-0.145-0.626-0.292-0.948-0.431c-0.706-0.314-1.416-0.587-2.064-0.792
					C348.895,197.419,348.721,197.393,348.539,197.393z"/>
			</g>
			<path style="fill:#A0C7C8;" d="M346.897,224.951c-4.494,6.385-10.554,9.859-13.535,7.761c-2.981-2.098-1.755-8.975,2.739-15.36
				c4.494-6.385,10.554-9.859,13.535-7.761C352.617,211.69,351.391,218.566,346.897,224.951z"/>
		</g>
		<g>
			<path style="fill:#A0C7C8;" d="M358.696,237.117c0.559-0.714,0.451-1.837-0.253-2.659l-36.886-43.078
				c0,0-0.764-0.953-2.581,0.603l-9.262,7.93c-0.296,0.253-0.29,0.742,0.014,1.096l0.229,0.267c0.303,0.354,0.785,0.436,1.081,0.182
				l6.624-5.672c0.296-0.253,0.778-0.172,1.081,0.182l0.22,0.257c0.303,0.354,0.31,0.843,0.014,1.096l-6.624,5.672
				c-0.296,0.253-0.289,0.742,0.014,1.096l0.229,0.267c0.303,0.354,0.785,0.436,1.081,0.182l6.624-5.672
				c0.296-0.253,0.778-0.172,1.081,0.182c0.152,0.177,0.228,0.388,0.231,0.586c0.003,0.198-0.069,0.384-0.217,0.51l-6.624,5.672
				c-0.296,0.253-0.29,0.742,0.014,1.096l0.229,0.267c0.303,0.354,0.785,0.436,1.081,0.182l6.624-5.672
				c0.296-0.253,0.778-0.172,1.081,0.182c0.152,0.177,0.228,0.388,0.231,0.586s-0.069,0.384-0.217,0.51l-6.624,5.672
				c-0.296,0.253-0.289,0.742,0.014,1.096l0.229,0.267c0.303,0.354,0.785,0.436,1.081,0.183l6.624-5.672
				c0.296-0.253,0.778-0.172,1.081,0.182c0.152,0.177,0.228,0.388,0.231,0.586s-0.069,0.384-0.217,0.51l-6.624,5.672
				c-0.296,0.253-0.29,0.742,0.014,1.096l0.229,0.267c0.303,0.354,0.785,0.436,1.081,0.183l6.624-5.672
				c0.296-0.253,0.778-0.172,1.081,0.182l0.22,0.257c0.303,0.354,0.31,0.843,0.014,1.096l-6.624,5.672
				c-0.296,0.253-0.289,0.742,0.014,1.096l0.229,0.267c0.303,0.354,0.785,0.436,1.081,0.182l6.624-5.672
				c0.296-0.253,0.778-0.172,1.081,0.183c0.152,0.177,0.228,0.388,0.231,0.586s-0.069,0.384-0.217,0.51l-6.624,5.672
				c-0.296,0.253-0.289,0.742,0.014,1.096l0.229,0.267c0.303,0.354,0.785,0.436,1.081,0.183l6.624-5.672
				c0.296-0.253,0.778-0.172,1.081,0.183c0.152,0.177,0.228,0.388,0.231,0.586s-0.069,0.384-0.217,0.51l-6.624,5.672
				c-0.296,0.253-0.289,0.742,0.014,1.096l0.229,0.267c0.303,0.354,0.785,0.436,1.081,0.183l7.157-6.129
				c0,0,3.675,2.483,7.844,8.602c4.174,6.119,8.629,15.665,10.308,16.702C354.9,241.649,357.349,238.844,358.696,237.117z
				 M353.497,237.603c-0.741-0.865-0.756-2.072-0.034-2.69c0.724-0.62,1.914-0.419,2.655,0.446c0.743,0.868,0.759,2.074,0.034,2.695
				C355.429,238.672,354.24,238.471,353.497,237.603z"/>
			<g>
				<path style="fill:#3C221D;" d="M354.14,241.692c-0.377,0-0.612-0.144-0.754-0.232c-1.013-0.626-2.482-3.186-4.991-7.658
					c-1.707-3.042-3.642-6.49-5.508-9.227c-3.274-4.804-6.259-7.345-7.293-8.148l-6.773,5.799c-0.561,0.479-1.446,0.366-1.975-0.252
					l-0.228-0.267c-0.529-0.618-0.505-1.51,0.054-1.99l6.625-5.672c-0.006-0.078-0.035-0.146-0.083-0.203
					c-0.085-0.099-0.18-0.112-0.198-0.107l-6.613,5.665c-0.284,0.243-0.67,0.347-1.056,0.28c-0.35-0.059-0.676-0.248-0.92-0.532
					l-0.228-0.267c-0.529-0.618-0.504-1.51,0.054-1.99l6.625-5.672c-0.006-0.078-0.035-0.146-0.084-0.203
					c-0.084-0.098-0.176-0.114-0.197-0.107l-6.614,5.666c-0.284,0.243-0.669,0.346-1.055,0.28c-0.35-0.059-0.677-0.248-0.92-0.532
					l-0.228-0.267c-0.272-0.317-0.41-0.724-0.38-1.116c0.027-0.346,0.181-0.657,0.435-0.874l6.624-5.672
					c0.001-0.011,0.001-0.104-0.084-0.202l-0.22-0.257c-0.083-0.098-0.171-0.112-0.197-0.107l-6.614,5.665
					c-0.284,0.243-0.667,0.347-1.055,0.28c-0.35-0.059-0.676-0.248-0.919-0.532l-0.228-0.267c-0.244-0.285-0.38-0.636-0.384-0.991
					c-0.005-0.392,0.155-0.756,0.439-1l6.624-5.672c-0.006-0.078-0.035-0.146-0.083-0.202c-0.084-0.098-0.171-0.115-0.198-0.107
					l-6.613,5.666c-0.559,0.478-1.445,0.367-1.975-0.251l-0.229-0.268c-0.243-0.284-0.379-0.635-0.384-0.99
					c-0.005-0.392,0.155-0.757,0.439-1l6.624-5.672c-0.006-0.078-0.035-0.146-0.083-0.202c-0.084-0.098-0.172-0.114-0.198-0.107
					l-6.613,5.666c-0.56,0.479-1.446,0.366-1.975-0.252l-0.228-0.267c-0.529-0.617-0.504-1.509,0.055-1.989l6.625-5.672
					c-0.006-0.078-0.035-0.146-0.082-0.201c-0.085-0.099-0.172-0.113-0.199-0.109l-6.613,5.666
					c-0.561,0.479-1.445,0.366-1.975-0.252l-0.228-0.267c-0.272-0.317-0.41-0.724-0.38-1.116c0.027-0.346,0.181-0.657,0.435-0.874
					l6.624-5.672c0.001-0.011,0.001-0.104-0.084-0.202l-0.22-0.257c-0.085-0.1-0.178-0.113-0.198-0.107l-6.614,5.666
					c-0.561,0.479-1.445,0.366-1.975-0.252l-0.228-0.267c-0.244-0.285-0.38-0.636-0.384-0.991c-0.005-0.392,0.155-0.756,0.439-1
					l9.262-7.93c0.883-0.756,1.703-1.103,2.431-1.036c0.66,0.062,0.996,0.442,1.057,0.518l36.873,43.063
					c0.902,1.052,1.016,2.508,0.271,3.461l0,0C356.472,240.999,354.964,241.692,354.14,241.692z M335.565,214.983
					c0.123,0,0.247,0.036,0.355,0.109c0.154,0.104,3.824,2.622,8.014,8.77c1.897,2.782,3.846,6.256,5.566,9.321
					c1.853,3.301,3.768,6.716,4.551,7.199c0.23,0.138,1.478-0.235,4.144-3.655c0.001,0,0.001-0.001,0.001-0.001
					c0.369-0.471,0.268-1.269-0.235-1.856l-36.886-43.079c-0.111-0.104-0.654-0.21-1.687,0.673l-9.262,7.93
					c-0.002,0.012-0.001,0.104,0.083,0.202l0.228,0.267c0.084,0.099,0.173,0.114,0.198,0.108l6.614-5.666
					c0.283-0.243,0.668-0.344,1.055-0.28c0.35,0.059,0.676,0.248,0.919,0.532l0.22,0.257c0.529,0.618,0.505,1.51-0.054,1.99
					l-6.625,5.672c-0.002,0.011-0.001,0.104,0.083,0.202l0.229,0.268c0.084,0.098,0.171,0.111,0.198,0.107l6.613-5.666
					c0.56-0.479,1.445-0.366,1.975,0.252c0.242,0.282,0.379,0.634,0.383,0.99c0.005,0.393-0.155,0.757-0.438,1l-6.624,5.671
					c-0.001,0.011-0.001,0.104,0.084,0.202l0.228,0.267c0.084,0.098,0.169,0.11,0.198,0.107l6.613-5.666
					c0.56-0.479,1.446-0.365,1.975,0.252c0.243,0.283,0.379,0.635,0.383,0.99c0.005,0.393-0.155,0.757-0.438,1l-6.623,5.672
					c-0.002,0.012-0.001,0.104,0.083,0.202l0.228,0.267c0.083,0.097,0.17,0.112,0.198,0.107l6.613-5.666
					c0.56-0.479,1.446-0.366,1.975,0.252c0.242,0.283,0.378,0.635,0.383,0.99c0.005,0.393-0.155,0.757-0.438,1l-6.623,5.672
					c-0.002,0.012-0.001,0.104,0.083,0.202l0.228,0.267c0.084,0.097,0.176,0.112,0.197,0.108l6.614-5.666
					c0.284-0.243,0.67-0.346,1.055-0.28c0.35,0.059,0.677,0.248,0.92,0.532l0.22,0.257c0.529,0.617,0.504,1.51-0.055,1.99
					l-6.625,5.672c-0.002,0.011-0.001,0.104,0.083,0.202l0.229,0.268c0.083,0.097,0.17,0.11,0.197,0.107l6.614-5.666
					c0.284-0.243,0.667-0.345,1.055-0.28c0.35,0.059,0.676,0.248,0.919,0.532c0.243,0.284,0.379,0.635,0.383,0.99
					c0.005,0.393-0.155,0.757-0.438,1l-6.624,5.672c-0.001,0.011-0.001,0.104,0.084,0.202l0.228,0.267
					c0.085,0.099,0.179,0.113,0.197,0.107l6.614-5.666c0.559-0.479,1.445-0.366,1.975,0.251c0.243,0.284,0.379,0.635,0.383,0.99
					c0.005,0.393-0.155,0.757-0.438,1l-6.624,5.672c-0.001,0.011-0.001,0.104,0.084,0.202l0.228,0.268
					c0.084,0.097,0.171,0.111,0.198,0.107l7.147-6.123C335.271,215.034,335.418,214.983,335.565,214.983z M355.146,239.043
					c-0.758,0-1.554-0.355-2.131-1.027l0,0c-0.454-0.531-0.709-1.186-0.718-1.842c-0.009-0.699,0.259-1.318,0.753-1.742
					c0.495-0.423,1.148-0.595,1.839-0.477c0.648,0.109,1.255,0.462,1.71,0.993c0.456,0.532,0.711,1.187,0.72,1.845
					c0.009,0.7-0.259,1.319-0.755,1.744C356.163,238.878,355.663,239.043,355.146,239.043z M353.978,237.191
					c0.506,0.591,1.312,0.764,1.761,0.381c0.205-0.175,0.316-0.447,0.312-0.765c-0.005-0.36-0.152-0.729-0.415-1.036
					c-0.262-0.306-0.602-0.508-0.958-0.568c-0.312-0.052-0.598,0.015-0.803,0.191c-0.204,0.175-0.314,0.446-0.31,0.763
					C353.569,236.518,353.716,236.884,353.978,237.191L353.978,237.191z"/>
			</g>
		</g>
	</g>
	<circle style="fill:#B5CFC8;" cx="340.099" cy="301.703" r="37.345"/>
	<circle style="fill:#B5CFC8;" cx="340.099" cy="387.531" r="37.345"/>
	<g>
		<path style="fill:#FFFFFF;" d="M358.598,276.24c-2.233,0.328-5.911,4.234-8.906,9.576c-0.078,0.137-0.15,0.269-0.223,0.406
			c-3.004,5.474-4.28,10.583-3.181,12.434l-3.15-1.91c0,0-0.005,0-0.009-0.005c-1.322-0.57-2.283-0.442-2.616,0.697l-4.653,15.961
			c-3.765,0.542-6.518-0.921-6.518-0.921l2.862-21.385c0.278-2.087,0.953-4.097,1.983-5.934l1.504-2.68
			c0.068-0.128,0.141-0.251,0.214-0.374c3.956-6.645,12.119-9.498,19.434-6.983L358.598,276.24z"/>
		<path style="fill:#A0C7C8;" d="M335.859,313.4l-3.195,10.971c-0.305,1.053-1.235,1.714-2.233,1.759
			c-0.442,0.023-0.898-0.073-1.317-0.31c-0.155-0.087-0.296-0.187-0.424-0.301c-0.237-0.21-0.429-0.46-0.57-0.738
			c-0.214-0.433-0.301-0.925-0.237-1.422l1.458-10.879C329.341,312.479,332.094,313.942,335.859,313.4z"/>
		<path style="fill:#B5CFC8;" d="M357.057,289.239c-0.023,0.046-0.05,0.091-0.073,0.137c-0.077,0.132-0.15,0.269-0.228,0.406
			c-3.587,6.395-7.953,10.528-9.931,9.416c-0.032-0.018-0.064-0.036-0.091-0.055c-0.178-0.123-0.328-0.283-0.447-0.488
			c-1.099-1.85,0.178-6.96,3.181-12.434c0.073-0.137,0.146-0.269,0.223-0.406c2.994-5.342,6.673-9.248,8.906-9.576
			c0.201-0.027,0.383-0.027,0.556,0l0.032,0.009l0.438,0.15C361.551,277.48,360.416,283.063,357.057,289.239z"/>
		<path style="fill:#A0C7C8;" d="M330.431,326.129c-0.465,1.057-1.267,1.974-2.306,2.498c-1.896,0.962-4.22,0.67-5.82-0.729
			c-1.299-1.135-1.932-2.89-2.179-4.553c-0.292-1.942-0.228-3.924-0.009-5.866c0.465-4.088,1.65-8.035,2.566-12.037
			c0.451-1.969,0.839-3.961,0.998-5.98c0.146-1.773,0.292-3.81-0.41-5.492c-0.611-1.472-2.16-2.366-3.742-1.964
			c-1.54,0.392-2.416,1.942-2.256,3.468c0.05,0.492-0.46,0.912-0.911,0.912c-0.529,0-0.861-0.424-0.912-0.912
			c-0.201-1.932,0.88-3.979,2.625-4.854c1.8-0.907,4.034-0.597,5.547,0.729c1.408,1.24,1.846,3.204,1.946,5
			c0.114,2.014-0.105,4.047-0.424,6.035c-0.652,4.047-1.901,7.967-2.698,11.982c-0.397,1.978-0.67,3.974-0.688,5.989
			c-0.014,1.691,0.068,3.532,0.893,5.055c0.784,1.449,2.329,2.293,3.974,1.855c0.957-0.251,1.673-0.911,2.065-1.746
			c0.128,0.114,0.269,0.214,0.424,0.301C329.533,326.057,329.989,326.152,330.431,326.129z"/>
		<g>
			<path style="fill:#3C221D;" d="M330.305,326.767c-0.527,0-1.044-0.135-1.504-0.396c-0.193-0.108-0.374-0.236-0.534-0.379
				c-0.292-0.259-0.533-0.571-0.713-0.924c-0.277-0.559-0.379-1.176-0.301-1.789l4.321-32.268c0.289-2.167,0.981-4.24,2.058-6.16
				l1.504-2.68c0.066-0.124,0.144-0.256,0.222-0.387c4.066-6.831,12.553-9.884,20.186-7.259l3.259,1.116
				c0.277,0.095,0.452,0.367,0.426,0.658c-0.027,0.292-0.25,0.526-0.539,0.569c-1.72,0.253-5.264,3.584-8.445,9.259
				c-3.367,5.992-4.271,10.76-3.413,12.206c0.149,0.25,0.108,0.569-0.098,0.774c-0.207,0.206-0.526,0.241-0.775,0.092l-3.111-1.887
				c-0.615-0.261-1.102-0.333-1.374-0.205c-0.059,0.028-0.236,0.111-0.352,0.509l-7.849,26.932
				c-0.367,1.265-1.498,2.155-2.813,2.215C330.408,326.766,330.357,326.767,330.305,326.767z M349.953,274.857
				c-5.437,0-10.65,2.78-13.503,7.574c-0.067,0.114-0.136,0.229-0.2,0.348l-1.51,2.691c-0.999,1.78-1.64,3.701-1.907,5.708
				l-4.321,32.265c-0.047,0.362,0.014,0.729,0.177,1.057c0.104,0.205,0.247,0.391,0.422,0.545c0.093,0.084,0.199,0.159,0.313,0.223
				c0.297,0.168,0.633,0.247,0.975,0.23c0.776-0.035,1.44-0.559,1.657-1.303l7.849-26.932c0.227-0.783,0.685-1.14,1.029-1.302
				c0.631-0.298,1.457-0.228,2.456,0.205c0.027,0.012,0.052,0.025,0.077,0.04l1.807,1.096c-0.225-2.976,1.606-7.774,3.865-11.795
				c2.463-4.393,5.335-7.8,7.66-9.211l-1.666-0.571C353.43,275.137,351.68,274.857,349.953,274.857z"/>
		</g>
		<g>
			<g>
				<path style="fill:#3C221D;" d="M347.553,300.013c-0.38,0-0.727-0.088-1.039-0.263c-0.046-0.027-0.091-0.053-0.129-0.078
					c-0.272-0.189-0.485-0.422-0.646-0.7c-1.478-2.488,0.642-8.558,3.401-13.467c3.112-5.551,6.876-9.526,9.366-9.892
					c0.27-0.036,0.512-0.036,0.747,0.001c0.026,0.004,0.052,0.01,0.077,0.017c0.01,0.003,0.053,0.016,0.063,0.019l0.437,0.15
					c0.036,0.012,0.07,0.028,0.104,0.047c0.522,0.293,0.888,0.8,1.087,1.508c0.698,2.484-0.759,7.483-3.711,12.736l0,0
					c-2.948,5.257-6.459,9.104-8.944,9.801C348.08,299.973,347.809,300.013,347.553,300.013z M358.886,276.854
					c-0.064,0-0.131,0.005-0.202,0.015c-1.713,0.251-5.257,3.582-8.439,9.257c-3.367,5.992-4.271,10.76-3.413,12.206
					c0.072,0.124,0.157,0.217,0.263,0.29l0.043,0.025c0.215,0.121,0.512,0.129,0.885,0.026c2.11-0.593,5.475-4.376,8.181-9.202
					c0,0,0,0,0-0.001c2.71-4.822,4.189-9.662,3.596-11.772c-0.098-0.349-0.248-0.591-0.446-0.721l-0.339-0.116
					C358.973,276.856,358.93,276.854,358.886,276.854z"/>
			</g>
		</g>
		<g>
			<path style="fill:#3C221D;" d="M334.17,314.155c-2.984,0-5.027-1.063-5.128-1.116c-0.31-0.165-0.427-0.548-0.263-0.857
				c0.164-0.309,0.548-0.428,0.856-0.263c0.04,0.02,2.648,1.356,6.135,0.854c0.352-0.052,0.667,0.191,0.718,0.537
				c0.049,0.347-0.191,0.668-0.537,0.718C335.328,314.118,334.732,314.155,334.17,314.155z"/>
		</g>
		<g>
			<path style="fill:#3C221D;" d="M343.137,297.381c-0.107,0-0.216-0.027-0.315-0.084c-1.246-0.716-4.791-2.267-6.214-0.885
				c-0.251,0.245-0.654,0.238-0.896-0.012c-0.244-0.251-0.238-0.652,0.012-0.896c2.4-2.329,7.514,0.57,7.73,0.695
				c0.303,0.175,0.407,0.562,0.233,0.865C343.569,297.267,343.356,297.381,343.137,297.381z"/>
		</g>
		<path style="fill:#80A5A5;" d="M351.877,285.289c0.24,0.135,0.099,0.841-0.314,1.578c-0.414,0.737-0.943,1.225-1.184,1.09
			c-0.24-0.135-0.099-0.841,0.314-1.578C351.107,285.642,351.637,285.154,351.877,285.289z"/>
		<path style="fill:#80A5A5;" d="M356.257,287.748c0.24,0.135,0.099,0.841-0.314,1.578c-0.414,0.737-0.944,1.225-1.184,1.09
			c-0.24-0.135-0.099-0.841,0.314-1.578C355.487,288.101,356.017,287.613,356.257,287.748z"/>
		<g>
			<path style="fill:#3C221D;" d="M352.245,291.357c-0.198,0-0.361-0.055-0.491-0.127c-1.053-0.591-0.448-2.544,0.39-4.037
				c0.434-0.773,0.947-1.451,1.444-1.909c0.855-0.787,1.45-0.721,1.799-0.525c0.168,0.095,0.391,0.286,0.497,0.664
				c0.248,0.881-0.295,2.319-0.886,3.372c-0.435,0.773-0.947,1.451-1.445,1.909C353.016,291.2,352.581,291.357,352.245,291.357z
				 M354.678,286.024c-0.331,0.241-0.888,0.829-1.427,1.79c-0.539,0.961-0.751,1.743-0.785,2.151
				c0.331-0.241,0.888-0.829,1.428-1.79C354.432,287.214,354.644,286.432,354.678,286.024z M354.767,285.865L354.767,285.865
				L354.767,285.865z"/>
		</g>
		<path style="fill:#80A5A5;" d="M350.544,293.386c0.24,0.135,0.099,0.841-0.314,1.578s-0.943,1.225-1.183,1.09
			c-0.24-0.135-0.099-0.841,0.314-1.578C349.774,293.739,350.304,293.251,350.544,293.386z"/>
		<path style="fill:#80A5A5;" d="M358.086,279.953c0.24,0.135,0.099,0.841-0.314,1.578c-0.414,0.737-0.944,1.225-1.184,1.09
			c-0.24-0.135-0.099-0.841,0.314-1.578C357.316,280.306,357.846,279.818,358.086,279.953z"/>
		<path style="fill:#80A5A5;" d="M349.816,289.979c0.24,0.135,0.099,0.841-0.314,1.578c-0.414,0.737-0.943,1.225-1.184,1.09
			c-0.24-0.135-0.099-0.841,0.314-1.578S349.576,289.844,349.816,289.979z"/>
		<path style="fill:#80A5A5;" d="M353.326,291.95c0.24,0.135,0.099,0.841-0.314,1.578c-0.414,0.737-0.943,1.225-1.184,1.09
			c-0.24-0.135-0.099-0.841,0.314-1.578C352.556,292.303,353.086,291.815,353.326,291.95z"/>
		<path style="fill:#80A5A5;" d="M354.516,281.472c0.24,0.135,0.099,0.841-0.314,1.578c-0.414,0.737-0.943,1.224-1.183,1.09
			c-0.24-0.135-0.099-0.841,0.314-1.578C353.746,281.825,354.275,281.337,354.516,281.472z"/>
		<path style="fill:#80A5A5;" d="M358.026,283.443c0.24,0.135,0.099,0.841-0.314,1.578c-0.414,0.737-0.943,1.225-1.183,1.09
			c-0.24-0.135-0.099-0.841,0.314-1.578C357.256,283.796,357.786,283.308,358.026,283.443z"/>
		<g>
			<path style="fill:#3C221D;" d="M325.77,329.819c-1.402,0-2.797-0.493-3.882-1.444c-1.574-1.374-2.167-3.444-2.389-4.937
				c-0.266-1.77-0.27-3.743-0.012-6.03c0.344-3.017,1.08-5.988,1.793-8.86c0.268-1.081,0.536-2.162,0.785-3.248
				c0.369-1.609,0.814-3.733,0.984-5.887c0.133-1.612,0.298-3.615-0.363-5.199c-0.512-1.236-1.777-1.907-3.001-1.594
				c-1.151,0.293-1.918,1.492-1.782,2.788c0.04,0.385-0.092,0.765-0.37,1.073c-0.305,0.337-0.743,0.539-1.172,0.539
				c-0.805,0-1.454-0.623-1.542-1.481c-0.228-2.201,1.021-4.508,2.972-5.485c2.019-1.017,4.531-0.688,6.249,0.819
				c1.315,1.158,2.022,2.937,2.161,5.441c0.101,1.781-0.032,3.684-0.431,6.17c-0.376,2.333-0.953,4.649-1.512,6.888
				c-0.418,1.674-0.85,3.405-1.19,5.117c-0.439,2.187-0.66,4.107-0.676,5.871c-0.014,1.657,0.076,3.38,0.816,4.747
				c0.693,1.28,1.968,1.888,3.255,1.544c0.732-0.191,1.319-0.69,1.653-1.403c0.085-0.181,0.251-0.311,0.447-0.351
				c0.196-0.04,0.4,0.015,0.549,0.148c0.092,0.082,0.197,0.157,0.311,0.221c0.297,0.168,0.633,0.247,0.975,0.23
				c0.229-0.015,0.429,0.093,0.554,0.274c0.125,0.181,0.147,0.413,0.058,0.615c-0.545,1.241-1.469,2.238-2.601,2.808
				C327.581,329.614,326.674,329.819,325.77,329.819z M320.294,291.275c1.52,0,2.933,0.935,3.563,2.451
				c0.779,1.867,0.592,4.133,0.456,5.787c-0.176,2.235-0.633,4.417-1.012,6.07c-0.25,1.092-0.52,2.181-0.79,3.27
				c-0.703,2.833-1.429,5.763-1.764,8.698c-0.245,2.175-0.243,4.039,0.006,5.7c0.19,1.284,0.686,3.049,1.969,4.17
				c1.4,1.224,3.456,1.483,5.116,0.641c0.628-0.317,1.175-0.809,1.592-1.423c-0.185-0.055-0.365-0.128-0.537-0.218
				c-0.516,0.717-1.255,1.234-2.106,1.457c-1.84,0.488-3.727-0.381-4.693-2.167c-0.876-1.619-0.984-3.533-0.969-5.361
				c0.017-1.845,0.246-3.843,0.701-6.108c0.346-1.742,0.782-3.488,1.203-5.176c0.552-2.214,1.124-4.503,1.491-6.783
				c0.384-2.393,0.512-4.211,0.417-5.898c-0.12-2.148-0.686-3.639-1.733-4.56c-1.334-1.169-3.282-1.427-4.843-0.639
				c-1.498,0.751-2.456,2.526-2.28,4.222c0.006,0.058,0.047,0.344,0.28,0.344c0.06,0,0.163-0.045,0.232-0.121
				c0.036-0.04,0.051-0.076,0.049-0.092c-0.201-1.916,0.974-3.699,2.73-4.147C319.68,291.313,319.989,291.275,320.294,291.275z"/>
		</g>
		<g>
			<path style="fill:#3C221D;" d="M362.443,292.991c-0.118,0-0.238-0.033-0.345-0.102l-3.938-2.557
				c-0.293-0.191-0.377-0.583-0.186-0.877c0.19-0.294,0.582-0.377,0.877-0.186l3.938,2.557c0.293,0.191,0.377,0.583,0.186,0.877
				C362.854,292.89,362.65,292.991,362.443,292.991z"/>
		</g>
		<g>
			<path style="fill:#3C221D;" d="M361.445,297.975c-0.118,0-0.238-0.033-0.345-0.102l-3.938-2.556
				c-0.294-0.191-0.377-0.583-0.186-0.877c0.191-0.293,0.582-0.378,0.877-0.186l3.938,2.556c0.293,0.191,0.377,0.583,0.186,0.877
				C361.856,297.874,361.653,297.975,361.445,297.975z"/>
		</g>
		<g>
			<path style="fill:#3C221D;" d="M366.893,291.451c-0.118,0-0.238-0.033-0.345-0.102l-3.937-2.557
				c-0.293-0.191-0.377-0.583-0.186-0.877c0.191-0.293,0.582-0.377,0.877-0.186l3.937,2.557c0.293,0.191,0.377,0.583,0.186,0.877
				C367.304,291.349,367.101,291.451,366.893,291.451z"/>
		</g>
		<g>
			<path style="fill:#3C221D;" d="M370.762,304.3c-0.118,0-0.238-0.033-0.345-0.102l-3.937-2.556
				c-0.293-0.191-0.377-0.583-0.186-0.877c0.191-0.293,0.582-0.378,0.877-0.186l3.937,2.557c0.294,0.191,0.377,0.583,0.186,0.877
				C371.172,304.199,370.969,304.3,370.762,304.3z"/>
		</g>
		<g>
			<path style="fill:#3C221D;" d="M366.718,286.613c-0.118,0-0.238-0.033-0.345-0.102l-3.937-2.557
				c-0.293-0.191-0.377-0.584-0.186-0.877c0.19-0.293,0.582-0.377,0.877-0.186l3.937,2.557c0.293,0.191,0.377,0.584,0.186,0.877
				C367.129,286.512,366.925,286.613,366.718,286.613z"/>
		</g>
		<g>
			<path style="fill:#3C221D;" d="M357.484,301.659c-0.118,0-0.238-0.033-0.345-0.102L353.202,299
				c-0.293-0.191-0.377-0.583-0.186-0.877c0.19-0.293,0.582-0.378,0.877-0.186l3.938,2.557c0.293,0.191,0.377,0.583,0.186,0.877
				C357.895,301.558,357.692,301.659,357.484,301.659z"/>
		</g>
		<g>
			<path style="fill:#3C221D;" d="M363.941,303.808c-0.118,0-0.238-0.033-0.345-0.102l-3.938-2.556
				c-0.293-0.191-0.377-0.583-0.186-0.877c0.191-0.293,0.582-0.377,0.877-0.186l3.938,2.556c0.293,0.191,0.377,0.583,0.186,0.877
				C364.352,303.707,364.149,303.808,363.941,303.808z"/>
		</g>
		<g>
			<path style="fill:#3C221D;" d="M368.846,299.316c-0.118,0-0.238-0.033-0.345-0.102l-3.937-2.557
				c-0.293-0.191-0.377-0.583-0.186-0.877c0.191-0.293,0.582-0.378,0.877-0.186l3.937,2.557c0.293,0.191,0.377,0.583,0.186,0.877
				C369.257,299.214,369.054,299.316,368.846,299.316z"/>
		</g>
		<g>
			<path style="fill:#3C221D;" d="M373.296,297.776c-0.118,0-0.238-0.033-0.345-0.102l-3.937-2.557
				c-0.293-0.191-0.377-0.584-0.186-0.877c0.191-0.293,0.582-0.377,0.877-0.186l3.937,2.557c0.293,0.191,0.377,0.584,0.186,0.877
				C373.707,297.674,373.504,297.776,373.296,297.776z"/>
		</g>
		<g>
			<path style="fill:#3C221D;" d="M374.27,292.405c-0.118,0-0.238-0.033-0.345-0.102l-3.937-2.557
				c-0.293-0.191-0.377-0.583-0.186-0.877c0.191-0.293,0.583-0.377,0.877-0.186l3.937,2.556c0.293,0.191,0.377,0.583,0.186,0.877
				C374.68,292.304,374.477,292.405,374.27,292.405z"/>
		</g>
	</g>
	<g>
		<g>
			<path style="fill:#FFFFFF;" d="M349.846,388.453c0,0-5.155-1.628-7.681,1.899c-2.527,3.528-11.866,19.259-14.454,22.872
				c-2.587,3.612-7.972-0.889-6.943-3.251c1.029-2.361,19.841-24.09,22.975-28.214c3.134-4.124,13.748-19.029,15.502-19.796
				c1.753-0.767,3.604,0.516,3.506,3.006C362.654,367.459,353.621,388.058,349.846,388.453z"/>
			<g>
				<path style="fill:#3C221D;" d="M325.196,415.215c-0.768,0-1.587-0.229-2.407-0.695c-1.809-1.026-3.319-3.154-2.602-4.8
					c0.636-1.458,6.551-8.555,14.838-18.421c3.79-4.512,7.063-8.409,8.214-9.924c0.706-0.93,1.795-2.408,3.075-4.15
					c7.24-9.845,11.405-15.286,12.677-15.842c0.995-0.437,2.058-0.352,2.914,0.232c0.998,0.681,1.537,1.913,1.479,3.38
					c-0.087,2.204-8.987,23.62-13.473,24.09c-0.088,0.01-0.174,0.001-0.256-0.025c-0.048-0.016-4.752-1.44-6.976,1.664
					c-1.242,1.735-4.233,6.587-7.124,11.279c-2.957,4.797-6.014,9.758-7.329,11.593C327.46,414.664,326.389,415.215,325.196,415.215
					z M360.266,362.377c-0.252,0-0.511,0.055-0.766,0.167c-1.229,0.563-8.615,10.606-12.164,15.433
					c-1.286,1.748-2.378,3.233-3.087,4.167c-1.17,1.539-4.452,5.447-8.253,9.972c-5.923,7.052-14.035,16.71-14.646,18.112
					c-0.37,0.847,0.615,2.368,2.064,3.191c0.724,0.41,2.538,1.176,3.782-0.563c1.289-1.799,4.335-6.741,7.28-11.52
					c3.037-4.927,5.905-9.581,7.173-11.352c2.542-3.549,7.315-2.436,8.238-2.179c3.351-0.755,12.139-20.524,12.231-22.861
					c0.04-1.021-0.298-1.853-0.928-2.283C360.915,362.472,360.597,362.377,360.266,362.377z"/>
			</g>
		</g>
		<g>
			<path style="fill:#FFFFFF;" d="M335.853,384.942c1.191,1.554,8.103,9.134,13.028,13.122c7.954,6.438,13.25,8.773,8.297,13.252
				c-0.04,0.038-0.084,0.077-0.128,0.115c-5.182,4.544-6.859-0.975-12.269-9.763c-3.323-5.396-9.954-13.224-11.343-14.604
				c-3.6-3.575-3.845-0.087-8.661-2.443c-4.372-2.141-9.753-13.515-10.811-15.496c-0.097-0.179-0.027-0.428,0.165-0.597
				c0.218-0.192,0.516-0.205,0.668-0.033l0.012,0.014c1.609,2.029,9.311,12.909,9.939,12.245c0.586-0.616-7.253-11.302-8.854-13.231
				c-0.144-0.176-0.089-0.465,0.127-0.655l0.195-0.172c0.222-0.195,0.525-0.207,0.675-0.029c1.635,1.933,9.565,12.341,10.882,11.526
				c1.025-1.165-8.318-10.401-10.029-12.275c-0.158-0.172-0.105-0.472,0.115-0.665l0.197-0.173c0.215-0.189,0.51-0.208,0.664-0.041
				c1.707,1.835,11.301,10.978,11.988,10.476c0.739-0.537-9.063-9.572-10.871-11.426l-0.012-0.014
				c-0.151-0.172-0.098-0.467,0.12-0.659c0.19-0.167,0.446-0.205,0.613-0.087c1.829,1.303,12.418,8.099,13.979,12.712
				C336.26,381.117,332.77,380.914,335.853,384.942z"/>
			<g>
				<path style="fill:#3C221D;" d="M353.761,413.693c-0.182,0-0.362-0.014-0.542-0.044c-2.382-0.389-4.059-3.274-6.598-7.64
					c-0.703-1.208-1.499-2.578-2.38-4.009c-3.335-5.415-9.964-13.208-11.249-14.486c-1.718-1.706-2.469-1.612-3.607-1.467
					c-1.111,0.14-2.493,0.314-4.886-0.856c-4.081-1.999-8.815-11.303-10.598-14.806c-0.212-0.417-0.379-0.745-0.494-0.96
					c-0.238-0.439-0.113-1.004,0.305-1.372c0.481-0.422,1.18-0.41,1.562,0.023c0.42,0.527,1.131,1.488,2.032,2.706
					c1.176,1.589,3.047,4.118,4.648,6.155c-2.164-3.227-5.318-7.53-6.546-9.01c-0.366-0.444-0.279-1.118,0.196-1.536l0.196-0.172
					c0.249-0.22,0.577-0.333,0.884-0.309c0.142,0.011,0.276,0.049,0.396,0.111c-0.046-0.126-0.066-0.264-0.059-0.405
					c0.017-0.313,0.17-0.619,0.42-0.839l0.198-0.174c0.478-0.421,1.158-0.419,1.549,0.007c1.31,1.408,5.181,5.094,8.107,7.654
					c-1.823-1.856-4.107-4.05-5.54-5.427c-1.083-1.041-1.938-1.862-2.37-2.305c-0.417-0.473-0.337-1.17,0.144-1.592
					c0.413-0.364,0.988-0.417,1.396-0.129c0.202,0.144,0.507,0.352,0.893,0.616c3.245,2.217,11.865,8.106,13.322,12.411
					c0.855,2.524,0.505,3.871,0.224,4.954c-0.289,1.109-0.479,1.842,0.993,3.765c1.104,1.44,7.983,9.014,12.924,13.015
					c1.36,1.101,2.663,2.097,3.813,2.976c3.938,3.011,6.539,5,6.637,7.372c0.053,1.279-0.623,2.508-2.126,3.866
					c-0.035,0.033-0.086,0.079-0.136,0.123C356.09,413.116,354.897,413.693,353.761,413.693z M330.244,384.704
					c0.972,0,2.051,0.331,3.642,1.91c1.309,1.302,8.05,9.224,11.435,14.721c0.889,1.445,1.69,2.822,2.397,4.037
					c2.272,3.908,3.915,6.733,5.707,7.026c0.883,0.145,1.935-0.328,3.208-1.444c0.038-0.033,0.074-0.064,0.108-0.096
					c1.198-1.084,1.757-2.024,1.722-2.885c-0.074-1.778-2.618-3.724-6.14-6.417c-1.156-0.884-2.467-1.886-3.84-2.998
					c-5.016-4.061-12.009-11.764-13.133-13.23c0,0,0,0,0-0.001c-1.848-2.414-1.539-3.599-1.213-4.854
					c0.251-0.967,0.536-2.064-0.198-4.228c-1.307-3.863-9.81-9.703-12.746-11.709c0.402,0.39,0.892,0.86,1.44,1.387
					c7.49,7.195,8.802,8.759,8.748,9.558c-0.015,0.221-0.124,0.421-0.299,0.548c-0.482,0.355-0.866,0.635-6.41-4.406
					c-2.514-2.285-5.228-4.906-6.271-5.999l-0.037,0.032c0.306,0.328,0.763,0.802,1.314,1.375
					c8.389,8.711,9.424,10.613,8.572,11.583c-0.041,0.047-0.089,0.088-0.142,0.121c-1.081,0.67-2.836-0.615-10.364-10.008
					c-0.497-0.62-0.908-1.133-1.192-1.477l-0.037,0.032c0.949,1.172,3.201,4.201,5.146,6.989c4.287,6.143,3.961,6.487,3.547,6.922
					c-0.147,0.156-0.358,0.236-0.581,0.225c-0.797-0.048-2.178-1.548-8.341-9.879c-0.456-0.616-0.862-1.166-1.202-1.62
					c1.618,3.179,6.313,12.344,9.97,14.135c2.053,1.004,3.177,0.862,4.17,0.737C329.563,384.746,329.897,384.704,330.244,384.704z
					 M318.462,367.593c0.087,0.109,0.178,0.222,0.271,0.339c1.641,2.048,6.207,7.744,8.191,9.288
					c-1.276-2.164-6.339-7.421-8.159-9.311C318.661,367.799,318.559,367.694,318.462,367.593z M314.524,368.823
					c0,0.001,0.001,0.002,0.001,0.003C314.525,368.826,314.524,368.825,314.524,368.823z M316.409,367.077
					c0.001,0.001,0.001,0.001,0.001,0.002C316.409,367.078,316.409,367.077,316.409,367.077z M318.211,365.489
					c0.001,0.001,0.001,0.001,0.002,0.002C318.213,365.49,318.212,365.489,318.211,365.489z M318.257,365.471
					c0.001,0.001,0.002,0.002,0.003,0.002C318.259,365.473,318.258,365.471,318.257,365.471z"/>
			</g>
		</g>
	</g>
</g>
<g id="TEXTS">
	<g>
		<text transform="matrix(1 0 0 1 74.9056 367.7752)" style="fill:#3C221D; font-family:'OpenSans-Semibold'; font-size:17.995px;">DANDRUFF</text>
	</g>
	<g>
		<rect x="74.905" y="388.003" style="fill:none;" width="192.381" height="38.297"/>
		<text transform="matrix(1 0 0 1 74.9056 395.7108)"><tspan x="0" y="0" style="fill:#3C221D; font-family:'OpenSans'; font-size:10.142px;">Lorem ipsum dolor sit amet, </tspan><tspan x="0" y="12.17" style="fill:#3C221D; font-family:'OpenSans'; font-size:10.142px;">consectetuer adipiscing elit, sed diam </tspan><tspan x="0" y="24.341" style="fill:#3C221D; font-family:'OpenSans'; font-size:10.142px;">nonummy nibh euismod tincidunt.</tspan></text>
	</g>
	<g>
		
			<text transform="matrix(1 0 0 1 383.4759 389.6913)" style="fill:#3C221D; font-family:'OpenSans-Semibold'; font-size:10.7758px;">Eat a healthy diet</text>
	</g>
	<g>
		<text transform="matrix(1 0 0 1 383.4749 119.7933)"><tspan x="0" y="0" style="fill:#3C221D; font-family:'OpenSans-Semibold'; font-size:10.7758px;">Develop a hair and</tspan><tspan x="0" y="12.931" style="fill:#3C221D; font-family:'OpenSans-Semibold'; font-size:10.7758px;">scalp care routine</tspan></text>
	</g>
	<g>
		
			<text transform="matrix(1 0 0 1 383.4749 218.1199)" style="fill:#3C221D; font-family:'OpenSans-Semibold'; font-size:10.7758px;">Limit hair products</text>
	</g>
	<g>
		<text transform="matrix(1 0 0 1 383.4749 297.4041)"><tspan x="0" y="0" style="fill:#3C221D; font-family:'OpenSans-Semibold'; font-size:10.7758px;">Wash hair and </tspan><tspan x="0" y="12.931" style="fill:#3C221D; font-family:'OpenSans-Semibold'; font-size:10.7758px;">calp more often</tspan></text>
	</g>
</g>
</svg>
