<?xml version="1.0" encoding="utf-8"?>
<!-- Generator: Adobe Illustrator 27.5.0, SVG Export Plug-In . SVG Version: 6.00 Build 0)  -->
<svg version="1.1" xmlns="http://www.w3.org/2000/svg" xmlns:xlink="http://www.w3.org/1999/xlink" x="0px" y="0px"
	 viewBox="0 0 500.16 500.16" style="enable-background:new 0 0 500.16 500.16;" xml:space="preserve">
<g id="BACKGROUND">
	<rect x="0" y="-0.311" style="fill-rule:evenodd;clip-rule:evenodd;fill:#5D86DE;" width="500.16" height="500.16"/>
</g>
<g id="OBJECTS">
	<g>
		<path style="fill-rule:evenodd;clip-rule:evenodd;fill:#446CC2;" d="M415.784,77.182c56.5,36.68,29.365,108.402,32.936,151.35
			c3.571,42.948,31.285,130.796-11.859,175.969c-36.282,37.988-99.717,33.672-132.927,40.183
			c-34.814,6.826-105.629,47.694-167.89,0.856c-49.73-37.412-61.95-101.299-73.631-136.315
			c-11.681-35.016-37.409-98.237-5.076-161.419c60.918-119.043,173.949-87.214,239.61-77.679
			C325.234,74.234,372.014,48.766,415.784,77.182z"/>
		<g>
			<path style="fill-rule:evenodd;clip-rule:evenodd;fill:#6A92E8;" d="M358.595,125.813c-2.27-1.053-5.169-0.065-6.263,2.293
				l-0.729,1.571c-1.135,2.444,0.022,5.21,2.293,6.263c2.444,1.134,5.128,0.152,6.263-2.292l0.73-1.571
				C361.982,129.719,361.039,126.947,358.595,125.813L358.595,125.813z M392.17,101.712c4.7-10.127,0.215-22.183-9.912-26.883
				c-6.722-3.12-14.361-2.208-20.016,1.745c-2.194,1.528-2.672,4.384-1.23,6.538c1.528,2.195,4.471,2.712,6.666,1.184
				c2.996-2.111,7.03-2.573,10.609-0.912c5.5,2.553,7.967,8.897,5.415,14.397c-2.512,5.413-8.991,7.712-14.491,5.159
				c-2.27-1.053-5.21,0.022-6.263,2.292c-0.041,0.088-0.041,0.088,0.006,0.215c-0.04,0.087-0.128,0.047-0.168,0.134l-4.214,9.079
				c-1.134,2.444,0.022,5.21,2.293,6.263c2.444,1.134,5.129,0.152,6.263-2.292l2.634-5.675
				C378.772,114.805,388.159,110.354,392.17,101.712z"/>
			<path style="fill-rule:evenodd;clip-rule:evenodd;fill:#234387;" d="M322.897,120.56c-1.372,0.001-2.585,1.163-2.584,2.589
				l0.001,0.95c0.001,1.478,1.216,2.585,2.589,2.584c1.478-0.001,2.585-1.111,2.584-2.588l-0.001-0.95
				C325.484,121.719,324.375,120.558,322.897,120.56L322.897,120.56z M334.017,100.809c-0.005-6.123-5.024-11.08-11.147-11.074
				c-4.064,0.004-7.651,2.224-9.548,5.498c-0.738,1.268-0.314,2.798,0.9,3.536c1.268,0.738,2.85,0.314,3.588-0.953
				c1.001-1.743,2.9-2.906,5.064-2.908c3.325-0.003,6.02,2.581,6.022,5.906c0.003,3.273-2.687,5.914-6.012,5.917
				c-1.372,0.001-2.585,1.216-2.584,2.589c0,0.053,0,0.053,0.053,0.106c0,0.052-0.053,0.052-0.052,0.105l0.005,5.489
				c0.001,1.478,1.216,2.585,2.589,2.584c1.478-0.001,2.585-1.111,2.584-2.588l-0.003-3.431
				C330.383,110.419,334.021,106.035,334.017,100.809z"/>
			<path style="fill-rule:evenodd;clip-rule:evenodd;fill:#234387;" d="M384.095,147.77c-0.842-1.084-2.504-1.33-3.629-0.455
				l-0.75,0.583c-1.167,0.907-1.297,2.546-0.455,3.629c0.907,1.167,2.462,1.362,3.629,0.455l0.75-0.583
				C384.765,150.525,385.001,148.938,384.095,147.77L384.095,147.77z M406.516,144.453c4.835-3.757,5.676-10.76,1.919-15.595
				c-2.494-3.209-6.447-4.683-10.197-4.176c-1.454,0.194-2.403,1.466-2.242,2.878c0.194,1.454,1.499,2.445,2.953,2.251
				c1.991-0.277,4.074,0.511,5.401,2.22c2.04,2.626,1.649,6.339-0.976,8.379c-2.584,2.008-6.32,1.502-8.36-1.124
				c-0.842-1.084-2.546-1.297-3.629-0.455c-0.042,0.033-0.042,0.033-0.051,0.106c-0.042,0.032-0.074-0.009-0.116,0.023l-4.335,3.368
				c-1.167,0.907-1.297,2.545-0.455,3.629c0.907,1.167,2.462,1.362,3.629,0.455l2.709-2.105
				C396.696,147.471,402.39,147.659,406.516,144.453z"/>
		</g>
		<g>
			<path style="fill-rule:evenodd;clip-rule:evenodd;fill:#FFDF67;" d="M255.689,246.467c-15.004-0.882-56.764,0.621-83.088,9.308
				c-20.423,6.74-12.507,46.408-10.913,88.082c1.458,38.116,5.368,65.167,4.781,85.535c-0.607,21.027-10.215,49.463-7.624,70.457
				c2.627,1.397,171.833,0,187.987,0c-0.703-15.343-7.639-46.321-7.037-68.316c0.427-15.601,6.535-53.272,9.678-83.668
				c4.57-44.201,4.306-85.598-9.894-89.807C318.826,251.908,280.389,244.998,255.689,246.467z"/>
			<g>
				<defs>
					<path id="SVGID_1_" d="M255.689,246.467c-15.004-0.882-56.764,0.621-83.088,9.308c-20.423,6.74-12.507,46.408-10.913,88.082
						c1.458,38.116,5.368,65.167,4.781,85.535c-0.607,21.027-10.215,49.463-7.624,70.457c2.627,1.397,171.833,0,187.987,0
						c-0.703-15.343-7.639-46.321-7.037-68.316c0.427-15.601,6.535-53.272,9.678-83.668c4.57-44.201,4.306-85.598-9.894-89.807
						C318.826,251.908,280.389,244.998,255.689,246.467z"/>
				</defs>
				<clipPath id="SVGID_00000076605168959284352010000001988649592816629905_">
					<use xlink:href="#SVGID_1_"  style="overflow:visible;"/>
				</clipPath>
				
					<path style="opacity:0.5;clip-path:url(#SVGID_00000076605168959284352010000001988649592816629905_);fill-rule:evenodd;clip-rule:evenodd;fill:#FFFFFF;" d="
					M55.896,353.426c-0.937,0.937-2.457,0.937-3.394,0c-0.937-0.937-0.937-2.457,0-3.394l22.453-22.452
					c0.937-0.937,2.457-0.937,3.394,0l20.755,20.756l20.756-20.755c0.937-0.937,2.457-0.937,3.394,0l20.755,20.756l20.755-20.755
					c0.937-0.937,2.457-0.937,3.394,0l20.755,20.756l20.756-20.755c0.937-0.937,2.457-0.937,3.394,0l20.755,20.756l20.756-20.755
					c0.937-0.937,2.457-0.937,3.394,0l20.756,20.756l20.755-20.756c0.937-0.937,2.457-0.937,3.394,0l20.755,20.756l20.756-20.755
					c0.937-0.937,2.457-0.937,3.394,0l20.755,20.756l20.756-20.755c0.937-0.937,2.457-0.937,3.394,0l20.755,20.756l20.755-20.755
					c0.937-0.937,2.457-0.937,3.394,0l22.452,22.453c0.937,0.937,0.937,2.457,0,3.394c-0.937,0.937-2.457,0.937-3.394,0
					l-20.755-20.756l-20.755,20.755c-0.937,0.937-2.457,0.937-3.394,0l-20.755-20.756l-20.756,20.756
					c-0.937,0.937-2.457,0.937-3.394,0l-20.755-20.756l-20.756,20.755c-0.937,0.937-2.457,0.937-3.394,0l-20.755-20.756
					l-20.755,20.755c-0.937,0.937-2.457,0.937-3.394,0l-20.756-20.756l-20.756,20.755c-0.937,0.937-2.457,0.937-3.394,0
					l-20.755-20.756l-20.756,20.755c-0.937,0.937-2.457,0.937-3.394,0l-20.755-20.756l-20.755,20.756
					c-0.937,0.937-2.457,0.937-3.394,0l-20.755-20.756l-20.756,20.755c-0.937,0.937-2.457,0.937-3.394,0l-20.755-20.756
					L55.896,353.426z"/>
				
					<path style="opacity:0.7;clip-path:url(#SVGID_00000076605168959284352010000001988649592816629905_);fill-rule:evenodd;clip-rule:evenodd;fill:#FFFFFF;" d="
					M55.896,371.914c-0.937,0.937-2.457,0.937-3.394,0c-0.937-0.937-0.937-2.457,0-3.394l22.453-22.452
					c0.937-0.937,2.457-0.937,3.394,0l20.755,20.756l20.756-20.755c0.937-0.937,2.457-0.937,3.394,0l20.755,20.756l20.755-20.756
					c0.937-0.937,2.457-0.937,3.394,0l20.755,20.756l20.756-20.755c0.937-0.937,2.457-0.937,3.394,0l20.755,20.756l20.756-20.755
					c0.937-0.937,2.457-0.937,3.394,0l20.756,20.756l20.755-20.756c0.937-0.937,2.457-0.937,3.394,0l20.755,20.756l20.756-20.755
					c0.937-0.937,2.457-0.937,3.394,0l20.755,20.756l20.756-20.755c0.937-0.937,2.457-0.937,3.394,0l20.755,20.756l20.755-20.755
					c0.937-0.937,2.457-0.937,3.394,0l22.452,22.453c0.937,0.937,0.937,2.457,0,3.394c-0.937,0.937-2.457,0.937-3.394,0
					l-20.755-20.756l-20.755,20.755c-0.937,0.937-2.457,0.937-3.394,0l-20.755-20.756l-20.756,20.756
					c-0.937,0.937-2.457,0.937-3.394,0l-20.755-20.756l-20.756,20.755c-0.937,0.937-2.457,0.937-3.394,0l-20.755-20.756
					l-20.755,20.755c-0.937,0.937-2.457,0.937-3.394,0l-20.756-20.756l-20.756,20.755c-0.937,0.937-2.457,0.937-3.394,0
					l-20.755-20.756l-20.756,20.755c-0.937,0.937-2.457,0.937-3.394,0l-20.755-20.756l-20.755,20.756
					c-0.937,0.937-2.457,0.937-3.394,0l-20.755-20.756l-20.756,20.755c-0.937,0.937-2.457,0.937-3.394,0l-20.755-20.756
					L55.896,371.914z"/>
				
					<path style="opacity:0.5;clip-path:url(#SVGID_00000076605168959284352010000001988649592816629905_);fill-rule:evenodd;clip-rule:evenodd;fill:#FFFFFF;" d="
					M55.896,390.403c-0.937,0.937-2.457,0.937-3.394,0c-0.937-0.937-0.937-2.457,0-3.394l22.453-22.452
					c0.937-0.937,2.457-0.937,3.394,0l20.755,20.756l20.756-20.755c0.937-0.937,2.457-0.937,3.394,0l20.755,20.756l20.755-20.756
					c0.937-0.937,2.457-0.937,3.394,0l20.755,20.756l20.756-20.755c0.937-0.937,2.457-0.937,3.394,0l20.755,20.756l20.756-20.755
					c0.937-0.937,2.457-0.937,3.394,0l20.756,20.756l20.755-20.755c0.937-0.937,2.457-0.937,3.394,0l20.755,20.756l20.756-20.755
					c0.937-0.937,2.457-0.937,3.394,0l20.755,20.756l20.756-20.756c0.937-0.937,2.457-0.937,3.394,0l20.755,20.756l20.755-20.755
					c0.937-0.937,2.457-0.937,3.394,0l22.452,22.453c0.937,0.937,0.937,2.457,0,3.394c-0.937,0.937-2.457,0.937-3.394,0
					l-20.755-20.756l-20.755,20.755c-0.937,0.937-2.457,0.937-3.394,0l-20.755-20.756l-20.756,20.755
					c-0.937,0.937-2.457,0.937-3.394,0l-20.755-20.756l-20.756,20.755c-0.937,0.937-2.457,0.937-3.394,0l-20.755-20.756
					l-20.755,20.756c-0.937,0.937-2.457,0.937-3.394,0l-20.756-20.756l-20.756,20.755c-0.937,0.937-2.457,0.937-3.394,0
					l-20.755-20.756l-20.756,20.755c-0.937,0.937-2.457,0.937-3.394,0l-20.755-20.756l-20.755,20.756
					c-0.937,0.937-2.457,0.937-3.394,0l-20.755-20.756l-20.756,20.755c-0.937,0.937-2.457,0.937-3.394,0l-20.755-20.756
					L55.896,390.403z"/>
			</g>
			<path style="fill-rule:evenodd;clip-rule:evenodd;fill:#F0D05B;" d="M160.75,349.959c-5.877,3.506-41.498,23.572-56.811,19.952
				c-11.793-2.788-22.173-18.971-9.173-34.231c22.373-26.263,48.767-63.69,77.835-79.905
				C179.315,252.03,170.105,344.378,160.75,349.959z"/>
			<path style="fill-rule:evenodd;clip-rule:evenodd;fill:#F0D05B;" d="M349.473,347.865c13.516,7.41,39.615,25.229,50.612,30.488
				c32.797,15.681,41.458-22.441,28.179-37.463c-24.818-28.076-63.776-72.231-88.686-82.833
				C324.991,251.85,343.818,344.765,349.473,347.865z"/>
			<path style="fill-rule:evenodd;clip-rule:evenodd;fill:#E8BBB2;" d="M354.908,184.551c-13.912,5.075-31.39-0.074-27.924-5.471
				c3.466-5.397,14.371,1.844,23.434-2.153C359.481,172.93,362.909,181.633,354.908,184.551z"/>
			<g>
				<g>
					
						<path style="fill-rule:evenodd;clip-rule:evenodd;fill:none;stroke:#253757;stroke-width:1.1999;stroke-linecap:round;stroke-linejoin:round;stroke-miterlimit:22.9256;" d="
						M337.171,152.865c-17.012,41.069-7.149,60.226,20.537,80.866"/>
					
						<path style="fill-rule:evenodd;clip-rule:evenodd;fill:none;stroke:#253757;stroke-width:1.1999;stroke-linecap:round;stroke-linejoin:round;stroke-miterlimit:22.9256;" d="
						M321.703,154.337c16.556,10.059,4.712,42.384,30.328,59.17"/>
					
						<path style="fill-rule:evenodd;clip-rule:evenodd;fill:none;stroke:#253757;stroke-width:1.1999;stroke-linecap:round;stroke-linejoin:round;stroke-miterlimit:22.9256;" d="
						M324.453,146.739c9.296,13.775,21.555,54.436-2.569,76.486"/>
					
						<path style="fill-rule:evenodd;clip-rule:evenodd;fill:none;stroke:#253757;stroke-width:1.1999;stroke-linecap:round;stroke-linejoin:round;stroke-miterlimit:22.9256;" d="
						M311.73,159.066c17.608,2.117,39.15,34.759,28.301,68.719"/>
				</g>
				<path style="fill-rule:evenodd;clip-rule:evenodd;fill:#FFD9D1;" d="M382.925,240.457
					c-1.878,10.787-11.332,19.178-17.431,14.663c-3.118-9.371-1.846-16.502-6.174-20.763c-17.8-17.523-4.894-33.421-5.986-40.629
					c-3.796-21.757-29.564-2.574-33.268-8.696c-4.24-7.005,23.162-12.982,37.011-7.312
					C378.105,186.33,375.777,218.446,382.925,240.457z"/>
			</g>
			<path style="fill-rule:evenodd;clip-rule:evenodd;fill:#E8BBB2;" d="M351.258,223.255c-5.438-12.821,0.506-21.54,2.061-24.671
				c2.923-0.5,5.569-0.281,7.362,1.24C364.365,200.985,348.189,214.743,351.258,223.255z"/>
			<path style="fill-rule:evenodd;clip-rule:evenodd;fill:#FFFFFF;" d="M383.11,231.74c14.043,35.491,35.291,70.398,37.376,85.209
				c4.1,29.113-25.471,34.719-36.241,16.28c-7.624-13.052-22.304-72.499-25.578-87.187
				C365.678,247.577,379.425,240.965,383.11,231.74z"/>
			<path style="fill-rule:evenodd;clip-rule:evenodd;fill:#FFDF67;" d="M389.797,241.439
				c15.665,47.507,47.247,79.906,45.029,116.969c-1.51,25.226-22.316,34.636-45.34,8.206
				c-12.84-14.739-13.731-57.858-30.996-110.784C371.742,257.598,384.047,249.305,389.797,241.439z"/>
			<path style="fill-rule:evenodd;clip-rule:evenodd;fill:#FBC9BE;" d="M289.593,272.17l-31.166,38.618l-30.587-41.104
				C248.397,268.653,268.801,273.427,289.593,272.17z"/>
			
				<path style="fill-rule:evenodd;clip-rule:evenodd;fill:#FBC9BE;stroke:#FBC9BE;stroke-width:0.216;stroke-miterlimit:22.9256;" d="
				M241.146,208.424l48.882,7.19l-8.751,52.3c-3.889,23.25-52.854,16.535-48.884-7.189L241.146,208.424z"/>
			<path style="fill-rule:evenodd;clip-rule:evenodd;fill:#D4A59B;" d="M237.309,231.838c12.567-9.809,37.533-6.651,50.893-5.317
				l-1.484,8.873c-6.207,15.469-16.06,29.753-50.473,29.251C233.468,254.303,235.615,241.97,237.309,231.838z"/>
			<polygon style="fill-rule:evenodd;clip-rule:evenodd;fill:#F7F9FC;" points="239.981,275.015 258.427,310.788 228.703,279.538 
							"/>
			<polygon style="fill-rule:evenodd;clip-rule:evenodd;fill:#FFFFFF;" points="236.769,234.575 239.981,275.015 212.512,296.405 
				218.057,246.781 			"/>
			<polygon style="fill-rule:evenodd;clip-rule:evenodd;fill:#F7F9FC;" points="276.847,276.368 258.427,310.788 288.125,280.891 
							"/>
			<polygon style="fill-rule:evenodd;clip-rule:evenodd;fill:#FFFFFF;" points="286.718,235.394 276.847,276.368 299.939,303.018 
				302.399,251.124 			"/>
			<path style="fill-rule:evenodd;clip-rule:evenodd;fill:#C9A198;" d="M201.986,184.34c0.591,0.099,4.081,0.793,6.817,7.441
				c1.349,3.278-0.512,7.117-0.57,14.601c-3.098-1.038-6.334-4.454-8.264-9.145C197.234,190.59,197.853,183.641,201.986,184.34z"/>
			<path style="fill-rule:evenodd;clip-rule:evenodd;fill:#FBC9BE;" d="M260.246,249.683c-21.786,5.122-40.984-18.871-48.302-34.412
				c-3.742-7.946-6.884-17.101-8.848-26.079c-7.8-35.647-9.41-73.01,28.128-81.918c38.031-6.493,56.628,30.538,63.398,66.396
				c1.471,7.794,2.326,22.187,0.622,30.375C289.652,230.907,279.389,245.182,260.246,249.683z"/>
			<path style="opacity:0.2;fill-rule:evenodd;clip-rule:evenodd;" d="M242.548,135.627c-18.401,7.652-29.269,12.019-31.122,13.884
				c-1.854,1.865-7.062,6.145-9.27,17.729c-2.208,11.585-7.622-17.756-3.405-24.421
				C202.967,136.154,233.855,129.565,242.548,135.627z"/>
			<path style="fill-rule:evenodd;clip-rule:evenodd;fill:#253757;" d="M205.757,200.592c-12.231-28.66-23.691-67.01-2.682-85.722
				c11.208-9.982,31.475-15.784,50.469-10.947c43.124-2.202,47.906,36.8,41.604,82.148c-11.668-4.506-13.955-57.561-26.721-59.468
				c-1.156-0.173-46.591,16.812-59,18.713C202.255,146.413,202.936,186.323,205.757,200.592z"/>
			<path style="fill-rule:evenodd;clip-rule:evenodd;fill:#D4A59B;" d="M254.57,211.55c-12.191-0.987-8.404-17.111-10.679-29.732
				C242.602,198.585,237.573,215.961,254.57,211.55z"/>
			<path style="fill-rule:evenodd;clip-rule:evenodd;fill:#D4A59B;" d="M235.957,223.671c7-4.573,28.534-6.609,34.843-5.543
				c-6.215,1.69-8.572,4.608-14.911,5.374C248.009,224.454,242.316,223.31,235.957,223.671z"/>
			<path style="fill-rule:evenodd;clip-rule:evenodd;fill:#D4A59B;" d="M246.567,228.814c6.748,1.929,11.868-0.436,16.682-1.802
				C261.997,231.664,249.889,233.71,246.567,228.814z"/>
			<path style="fill-rule:evenodd;clip-rule:evenodd;fill:#253757;" d="M233.629,174.94c3.315-0.638,2.999,5.902-0.388,6.095
				c-7.015,0.402-15.543-0.843-19.866-0.473c-3.029,0.26-3.324-3.57-0.355-4.214C218.931,175.067,224.671,176.665,233.629,174.94z"
				/>
			<path style="fill-rule:evenodd;clip-rule:evenodd;fill:#253757;" d="M256.317,170.138c-2.968,0.797-0.594,6.311,2.359,5.446
				c6.808-1.994,11.548-6.896,14.956-8.803c3.266-1.828,1.953-3.895-1.363-3.461C266.974,164.012,262.417,168.501,256.317,170.138z"
				/>
			<path style="opacity:0.2;fill-rule:evenodd;clip-rule:evenodd;" d="M209.115,208.545c-0.093-10.49,8.233-49.582,6.498-51.535
				c-4.041-4.549-9.4,9.842-10.596,25.307c-2.433-22.247,13.794-40.234,6.746-41.347c-3.902-0.616-13.524,15.051-17.442,24.114
				C195.444,176.759,205.324,199.5,209.115,208.545z"/>
			<g>
				<path style="fill-rule:evenodd;clip-rule:evenodd;fill:#FFD9D1;" d="M160.203,178.036c1.217-13.065-1.38-25.755-7.081-24.666
					c-3.481,0.665-1.441,10.838-1.703,18.681c-0.521,15.632-7.294,37.947,5.863,44.863c20.892,10.981,30.468-17.947,42.514-35.256
					c9.647-13.861,18.646-18.851,17.026-23.286c-2.196-6.016-15.74,2.252-24.728,15.954c7.147-22.399,26.137-29.541,19.67-33.356
					c-5.993-3.533-22.581,12.585-31.906,26.949c4.938-16.935,19.091-24.507,14.567-30.901
					C190.096,130.901,170.247,154.03,160.203,178.036z"/>
				<path style="fill-rule:evenodd;clip-rule:evenodd;fill:#FFE8E3;" d="M150.926,159.973c-0.139-2.467,0.371-6.568,1.938-6.631
					c2.605-0.103,2.596,4.813,2.535,6.59C155.331,161.882,151.046,162.096,150.926,159.973z"/>
				<path style="fill-rule:evenodd;clip-rule:evenodd;fill:#FFE8E3;" d="M186.685,139.091c1.822-1.67,5.493-4.026,6.533-2.853
					c1.729,1.951-1.577,5.417-2.991,6.494C188.676,143.913,185.119,140.527,186.685,139.091z"/>
				<path style="fill-rule:evenodd;clip-rule:evenodd;fill:#FFE8E3;" d="M204.605,142.238c1.736-1.275,6.401-2.579,7.104-1.18
					c1.17,2.329-3.017,4.825-4.659,5.502C205.247,147.305,202.894,143.495,204.605,142.238z"/>
				<path style="fill-rule:evenodd;clip-rule:evenodd;fill:#FFE8E3;" d="M208.504,158.037c1.723-1.291,6.393-2.419,7.109-1.027
					c1.193,2.317-2.987,4.632-4.622,5.325C209.196,163.097,206.805,159.311,208.504,158.037z"/>
			</g>
			<path style="fill-rule:evenodd;clip-rule:evenodd;fill:#FFFFFF;" d="M146.186,201.7c-16.198,31.45-35.208,70.581-37.293,85.393
				c-4.1,29.112,25.471,34.719,36.241,16.28c7.624-13.052,26.809-71.725,30.083-86.414
				C168.206,218.494,149.871,210.925,146.186,201.7z"/>
			<path style="fill-rule:evenodd;clip-rule:evenodd;fill:#FFDF67;" d="M139.999,210.741
				c-35.179,71.387-54.846,96.052-57.691,124.138c-3.966,39.154,37.447,45.072,52.387,22.637
				c11.906-17.878,22.155-66.962,38.978-130.955C164.105,231.006,145.027,223.333,139.999,210.741z"/>
			<g>
				
					<path style="fill-rule:evenodd;clip-rule:evenodd;fill:none;stroke:#253757;stroke-width:1.9199;stroke-linecap:round;stroke-linejoin:round;stroke-miterlimit:22.9256;" d="
					M262.521,180.954c3.238-2.588,8.803-3.762,12.83-2.897"/>
				<path style="fill-rule:evenodd;clip-rule:evenodd;fill:#253757;" d="M270.803,177.003c1.7-0.08,3.143,1.234,3.222,2.934
					c0.079,1.701-1.234,3.143-2.935,3.223c-1.7,0.079-3.143-1.235-3.223-2.935C267.789,178.525,269.103,177.082,270.803,177.003z"/>
			</g>
			<g>
				<path style="fill-rule:evenodd;clip-rule:evenodd;fill:#253757;" d="M228.853,185.806c1.701-0.079,3.143,1.235,3.223,2.935
					c0.079,1.701-1.234,3.143-2.935,3.223c-1.701,0.079-3.143-1.234-3.223-2.935C225.839,187.328,227.153,185.885,228.853,185.806z"
					/>
				
					<path style="fill-rule:evenodd;clip-rule:evenodd;fill:none;stroke:#253757;stroke-width:1.9199;stroke-linecap:round;stroke-linejoin:round;stroke-miterlimit:22.9256;" d="
					M220.685,189.741c3.238-2.589,8.803-3.762,12.83-2.897"/>
			</g>
			<path style="fill-rule:evenodd;clip-rule:evenodd;fill:#2D4163;" d="M200.392,133.699c14.993-2.105,51.266-10.503,62.093-17.783
				C258.648,126.462,218.388,136.132,200.392,133.699z"/>
			<path style="fill-rule:evenodd;clip-rule:evenodd;fill:#2D4163;" d="M207.372,124.352c9.24-17.728,30.949-19.271,50.147-12.305
				C242.08,108.966,214.868,114.678,207.372,124.352z"/>
			<path style="fill-rule:evenodd;clip-rule:evenodd;fill:#2D4163;" d="M270.827,117.935c16.954,3.455,21.541,29.324,19.842,46.975
				C287.91,146.509,283.636,124.813,270.827,117.935z"/>
			<path style="fill-rule:evenodd;clip-rule:evenodd;fill:#FFD9D1;" d="M347.266,180.876c-8.946-0.59-23.86,8.853-19.567,13.618
				c3.866,4.29,9.13-7.401,20.705-6.194c4.596,0.479,12.44,6.845,14.452,2.416C363.951,188.306,353.312,181.275,347.266,180.876z"/>
			<path style="fill-rule:evenodd;clip-rule:evenodd;fill:#FFD9D1;" d="M357.712,191.282c-2.91-0.323-7.247,0.275-9.514,1.261
				c-10.054,4.37-13.101,13.742-9.273,15.322c3.573,1.476,5.319-4.369,12.726-7.184c2.315-0.88,6.487-1.437,9.853-0.185
				C369.627,203.518,364.65,192.053,357.712,191.282z"/>
			<g>
				
					<path style="fill-rule:evenodd;clip-rule:evenodd;fill:none;stroke:#253757;stroke-width:1.1999;stroke-linecap:round;stroke-linejoin:round;stroke-miterlimit:22.9256;" d="
					M270.438,124.32c-10.483,9.527-33.07,20.88-47.71,22.405"/>
				
					<path style="fill-rule:evenodd;clip-rule:evenodd;fill:none;stroke:#253757;stroke-width:1.1999;stroke-linecap:round;stroke-linejoin:round;stroke-miterlimit:22.9256;" d="
					M254.382,105.727c-7.424-5.958-31.198-6.528-43.706,0.151"/>
				
					<path style="fill-rule:evenodd;clip-rule:evenodd;fill:none;stroke:#253757;stroke-width:1.1999;stroke-linecap:round;stroke-linejoin:round;stroke-miterlimit:22.9256;" d="
					M273.927,107.717c12.149,3.635,24.398,18.405,26.965,28.372"/>
			</g>
			<g>
				<path style="fill-rule:evenodd;clip-rule:evenodd;fill:#FAC7BB;" d="M297.042,163.213c-3.079-0.279-6.061,4.843-6.659,11.442
					c-0.599,6.599,1.412,12.175,4.491,12.455c3.08,0.279,6.061-4.844,6.66-11.443C302.133,169.068,300.122,163.491,297.042,163.213z
					"/>
				
					<path style="fill-rule:evenodd;clip-rule:evenodd;fill:none;stroke:#E0B4AA;stroke-width:1.1999;stroke-linecap:round;stroke-linejoin:round;stroke-miterlimit:22.9256;" d="
					M298.42,167.572c-2.959-3.36-6.183,7.672-4.722,12.016"/>
				
					<path style="fill-rule:evenodd;clip-rule:evenodd;fill:none;stroke:#E0B4AA;stroke-width:1.1999;stroke-linecap:round;stroke-linejoin:round;stroke-miterlimit:22.9256;" d="
					M293.498,176.624c2.543-0.192,5.714,1.027,4.865,3.554"/>
			</g>
			<path style="fill-rule:evenodd;clip-rule:evenodd;fill:#FFE8E3;" d="M329.346,172.764c-2.455,0.641-6.532,2.494-6.1,4.044
				c0.719,2.577,5.55,1.659,7.266,1.039C332.395,177.167,331.457,172.213,329.346,172.764z"/>
			<path style="fill-rule:evenodd;clip-rule:evenodd;fill:#FFE8E3;" d="M331.097,186.861c-1.863,1.722-4.585,5.279-3.473,6.443
				c1.849,1.934,5.676-1.154,6.898-2.509C335.862,189.307,332.699,185.38,331.097,186.861z"/>
			<path style="fill-rule:evenodd;clip-rule:evenodd;fill:#FFE8E3;" d="M339.198,200.141c-1.087,1.872-2.413,5.455-1.215,6.124
				c1.993,1.113,4.338-2.365,4.994-3.777C343.697,200.939,340.132,198.531,339.198,200.141z"/>
			<path style="fill-rule:evenodd;clip-rule:evenodd;fill:#F0D05B;" d="M158.664,485.302c-0.189,6.495-0.163,11.76,0.181,14.547
				c2.627,1.397,171.833,0,187.987,0c-0.638-13.923-6.409-40.722-7.021-61.999c-69.001,57.601-121.765,12.414-131.439,17.237
				c-10.03,5,27.596,20.524,50.766,22.019c23.17,1.495,17.319,3.258,9.352,3.982c-7.622,0.693-78.262-3.45-102.299-46.875
				C164.893,449.841,159.87,468.631,158.664,485.302z"/>
			<g>
				<defs>
					<path id="SVGID_00000168836352402390436110000007643869913989557651_" d="M158.664,485.302
						c-0.189,6.495-0.163,11.76,0.181,14.547c2.627,1.397,171.833,0,187.987,0c-0.638-13.923-6.409-40.722-7.021-61.999
						c-69.001,57.601-121.765,12.414-131.439,17.237c-10.03,5,27.596,20.524,50.766,22.019c23.17,1.495,17.319,3.258,9.352,3.982
						c-7.622,0.693-78.262-3.45-102.299-46.875C164.893,449.841,159.87,468.631,158.664,485.302z"/>
				</defs>
				<clipPath id="SVGID_00000015314620935561696760000015864579757308314753_">
					<use xlink:href="#SVGID_00000168836352402390436110000007643869913989557651_"  style="overflow:visible;"/>
				</clipPath>
				<g style="clip-path:url(#SVGID_00000015314620935561696760000015864579757308314753_);">
					
						<path style="opacity:0.5;fill-rule:evenodd;clip-rule:evenodd;fill:none;stroke:#FFFFFF;stroke-width:4.7999;stroke-linecap:round;stroke-linejoin:round;stroke-miterlimit:22.9256;" d="
						M53.184,351.304l22.453-22.452 M98.089,351.305l-22.452-22.453 M142.993,351.305l-22.452-22.453 M98.089,351.305l22.453-22.452
						 M232.802,351.306l-22.452-22.453 M187.898,351.305l22.453-22.452 M142.993,351.305l22.452-22.452 M187.898,351.305
						l-22.452-22.453 M232.802,351.306l22.453-22.452 M277.707,351.306l-22.452-22.453 M322.611,351.307l-22.452-22.453
						 M277.707,351.306l22.452-22.452 M412.42,351.308l-22.452-22.453 M367.515,351.307l22.453-22.452 M322.611,351.307
						l22.453-22.452 M367.515,351.307l-22.452-22.453 M412.42,351.308l22.452-22.452 M457.324,351.308l-22.452-22.453"/>
					
						<path style="opacity:0.7;fill-rule:evenodd;clip-rule:evenodd;fill:none;stroke:#FFFFFF;stroke-width:4.7999;stroke-linecap:round;stroke-linejoin:round;stroke-miterlimit:22.9256;" d="
						M53.184,369.792l22.453-22.452 M98.089,369.793L75.637,347.34 M142.993,369.793l-22.452-22.453 M98.089,369.793l22.453-22.452
						 M232.802,369.794l-22.452-22.453 M187.898,369.793l22.453-22.452 M142.993,369.793l22.452-22.452 M187.898,369.793
						l-22.452-22.453 M232.802,369.794l22.453-22.452 M277.707,369.795l-22.452-22.453 M322.611,369.795l-22.452-22.453
						 M277.707,369.795l22.452-22.452 M412.42,369.796l-22.452-22.453 M367.515,369.796l22.453-22.452 M322.611,369.795
						l22.453-22.452 M367.515,369.796l-22.452-22.453 M412.42,369.796l22.452-22.452 M457.324,369.796l-22.452-22.453"/>
					
						<path style="opacity:0.5;fill-rule:evenodd;clip-rule:evenodd;fill:none;stroke:#FFFFFF;stroke-width:4.7999;stroke-linecap:round;stroke-linejoin:round;stroke-miterlimit:22.9256;" d="
						M53.184,388.28l22.453-22.452 M98.089,388.281l-22.452-22.453 M142.993,388.281l-22.452-22.453 M98.089,388.281l22.453-22.452
						 M232.802,388.282l-22.452-22.453 M187.898,388.282l22.453-22.452 M142.993,388.281l22.452-22.452 M187.898,388.282
						l-22.452-22.453 M232.802,388.282l22.453-22.452 M277.707,388.283l-22.452-22.453 M322.611,388.283l-22.452-22.453
						 M277.707,388.283l22.452-22.452 M412.42,388.284l-22.452-22.453 M367.515,388.284l22.453-22.452 M322.611,388.283
						l22.453-22.452 M367.515,388.284l-22.452-22.453 M412.42,388.284l22.452-22.452 M457.324,388.284l-22.452-22.453"/>
				</g>
			</g>
		</g>
	</g>
</g>
</svg>
